<svg width="67" height="78" viewBox="0 0 67 78" fill="none" xmlns="http://www.w3.org/2000/svg">
<g clip-path="url(#clip0_205_154)">
<path fill-rule="evenodd" clip-rule="evenodd" d="M4.45446 8.35986H15.1465V12.0605H7.58004C6.5847 12.0704 5.63301 12.4446 4.92852 13.1029C4.22404 13.7613 3.8227 14.6516 3.81036 15.5835V70.8081C3.81923 71.741 4.21946 72.6332 4.92469 73.2923C5.62992 73.9513 6.58362 74.3244 7.58004 74.3311H59.42C60.4168 74.3277 61.3719 73.9555 62.0768 73.2955C62.7817 72.6356 63.1793 71.7414 63.1829 70.8081V15.5835C63.174 14.6517 62.7747 13.7604 62.0709 13.1016C61.3672 12.4427 60.4152 12.0688 59.42 12.0605H51.8535V8.35986H62.5388C63.7197 8.3632 64.8513 8.80345 65.687 9.58465C66.5227 10.3659 66.9946 11.4247 67 12.5303V73.8296C66.9911 74.9342 66.518 75.9911 65.6831 76.7716C64.8482 77.552 63.7186 77.9934 62.5388 78H4.45446C3.27471 77.995 2.14481 77.554 1.31059 76.773C0.476377 75.992 0.00535042 74.9341 0 73.8296L0 12.5303C0.00357668 11.4252 0.474033 10.3664 1.30863 9.58505C2.14323 8.80367 3.27417 8.36321 4.45446 8.35986ZM34.2865 20.6997H57.7928V22.7881H34.2526V20.6997H34.2865ZM34.2865 32.0747H42.3547V34.1694H34.2526V32.0747H34.2865ZM34.2865 26.1523H45.6362V28.2471H34.2526V26.1523H34.2865ZM51.3246 25.5684H53.2705C53.4503 25.5684 53.6228 25.6352 53.7499 25.7543C53.8771 25.8733 53.9485 26.0348 53.9485 26.2031V28.3169H56.2062C56.3861 28.3169 56.5585 28.3838 56.6857 28.5028C56.8128 28.6219 56.8842 28.7833 56.8842 28.9517V30.7798C56.8842 30.9481 56.8128 31.1096 56.6857 31.2286C56.5585 31.3477 56.3861 31.4146 56.2062 31.4146H53.901V33.4775C53.901 33.6459 53.8296 33.8073 53.7024 33.9264C53.5753 34.0454 53.4028 34.1123 53.223 34.1123H51.2907C51.1109 34.1123 50.9385 34.0454 50.8113 33.9264C50.6842 33.8073 50.6127 33.6459 50.6127 33.4775V31.3701H48.3685C48.1887 31.3701 48.0163 31.3032 47.8891 31.1842C47.762 31.0652 47.6905 30.9037 47.6905 30.7353V28.9263C47.6905 28.7579 47.762 28.5965 47.8891 28.4774C48.0163 28.3584 48.1887 28.2915 48.3685 28.2915H50.6263V26.1904C50.6263 26.0221 50.6977 25.8606 50.8249 25.7416C50.952 25.6225 51.1245 25.5557 51.3043 25.5557L51.3246 25.5684ZM16.0686 29.5864C16.1635 29.3896 16.2449 29.1675 16.2991 29.0215C16.0759 28.762 15.872 28.4884 15.6889 28.2026L15.0516 27.2949C14.8577 27.05 14.7382 26.7604 14.7058 26.457C14.6971 26.3522 14.7182 26.2471 14.7668 26.1523C14.8116 26.0586 14.8847 25.9792 14.977 25.9238C15.0229 25.8923 15.0731 25.8667 15.1262 25.8477C15.0921 25.2959 15.0921 24.7427 15.1262 24.1909C15.1406 24.0645 15.1655 23.9392 15.2008 23.8164C15.3692 23.2869 15.7412 22.8347 16.2449 22.5469C16.5172 22.3833 16.8144 22.2592 17.1263 22.1787C17.3229 22.1279 16.9568 21.5439 17.1602 21.5439C18.1433 21.4487 19.7366 22.293 20.4214 22.9849C20.7959 23.3775 21.0118 23.8806 21.0316 24.4067L20.9909 25.9175C21.0714 25.9343 21.145 25.9727 21.2028 26.0279C21.2605 26.0831 21.3 26.1528 21.3163 26.2285C21.3538 26.5032 21.2943 26.7819 21.1468 27.022L20.4688 28.1138C20.2071 28.5093 19.8952 28.8738 19.54 29.1992C19.5693 29.243 19.601 29.2854 19.6349 29.3262C20.8282 30.9702 22.4418 30.126 24.3199 31.4082L24.2589 31.478V34.2773H11.526V31.4526C11.5415 31.4168 11.5704 31.3874 11.6074 31.3701C12.821 30.7353 15.6211 30.4878 16.0483 29.5864H16.0686ZM9.96661 18.4463H25.8386C26.1982 18.4463 26.5431 18.58 26.7974 18.8181C27.0517 19.0562 27.1946 19.3791 27.1946 19.7158V36.0928C27.1895 36.4245 27.0459 36.7412 26.7946 36.9751C26.5442 37.2143 26.203 37.3512 25.8454 37.356H9.98017C9.62053 37.356 9.27563 37.2222 9.02133 36.9841C8.76703 36.746 8.62417 36.4231 8.62417 36.0864V19.7095C8.62417 19.3728 8.76703 19.0499 9.02133 18.8118C9.27563 18.5737 9.62053 18.4399 9.98017 18.4399L9.96661 18.4463ZM25.825 19.5254H9.98017C9.92872 19.5271 9.88004 19.5476 9.84457 19.5825C9.82476 19.5979 9.80897 19.6174 9.79839 19.6394C9.78782 19.6614 9.78274 19.6854 9.78355 19.7095V36.0928C9.78638 36.1389 9.80827 36.1821 9.84457 36.2134C9.86164 36.2313 9.88253 36.2456 9.90589 36.2554C9.92925 36.2653 9.95455 36.2704 9.98017 36.2705H25.8386C25.8874 36.2663 25.9331 36.2462 25.9678 36.2137C26.0024 36.1813 26.0239 36.1385 26.0284 36.0928V19.7095C26.0283 19.6855 26.0228 19.6618 26.0123 19.6399C26.0018 19.6181 25.9865 19.5985 25.9674 19.5825C25.934 19.5485 25.8878 19.528 25.8386 19.5254H25.825ZM9.34284 64.543H47.399V66.6504H9.34284V64.5747V64.543ZM9.34284 56.5767H57.63V58.6523H9.34284V56.5767ZM9.34284 47.144H20.8689L22.9503 43.1958L27.0522 48.7246L31.188 41.1582L35.4662 49.0103L37.29 47.417L38.0358 47.144H43.887L47.5549 43.6021L50.945 47.144H57.63V49.2197H49.9618L47.5007 46.6362L44.8294 49.2197H38.4697L34.795 52.3936L31.188 45.7031L27.3031 52.73L23.2351 47.252L22.1977 49.2197H9.31573V47.144H9.34284ZM21.3231 5.82715H26.3742C26.5391 4.25794 27.3112 2.79935 28.545 1.72607C29.7788 0.652783 31.3892 0.0388883 33.0729 0C34.7435 0.0372147 36.3427 0.641728 37.5726 1.70093C38.8024 2.76012 39.5791 4.20178 39.7579 5.75732L45.6701 5.82715C45.8679 5.82715 46.0576 5.90071 46.1975 6.03166C46.3373 6.1626 46.4159 6.34021 46.4159 6.52539V13.1968C46.4159 13.382 46.3373 13.5596 46.1975 13.6905C46.0576 13.8215 45.8679 13.895 45.6701 13.895H21.3299C21.1321 13.895 20.9424 13.8215 20.8025 13.6905C20.6627 13.5596 20.5841 13.382 20.5841 13.1968V6.52539C20.5823 6.43376 20.6001 6.34273 20.6365 6.25766C20.6729 6.17259 20.7272 6.09522 20.7961 6.03013C20.865 5.96503 20.9471 5.91353 21.0376 5.87867C21.1282 5.8438 21.2252 5.82628 21.3231 5.82715ZM30.2998 8.68994C30.7667 9.30701 31.3853 9.80991 32.1033 10.1562C32.6903 10.3148 33.3131 10.3148 33.9 10.1562C34.8239 9.68887 35.5613 8.95397 36.0018 8.06152C36.0515 7.83383 36.0765 7.60202 36.0764 7.36963C36.1041 6.98361 36.0468 6.59638 35.908 6.23195C35.7693 5.86752 35.5521 5.53366 35.2698 5.25107C34.9876 4.96848 34.6463 4.74319 34.2672 4.58916C33.8882 4.43514 33.4793 4.35566 33.0661 4.35566C32.6528 4.35566 32.244 4.43514 31.8649 4.58916C31.4858 4.74319 31.1446 4.96848 30.8624 5.25107C30.5801 5.53366 30.3629 5.86752 30.2241 6.23195C30.0854 6.59638 30.0281 6.98361 30.0558 7.36963C30.0572 7.80592 30.1517 8.23754 30.3337 8.63916L30.2998 8.68994Z" fill="#FF9D05"/>
</g>
<defs>
<clipPath id="clip0_205_154">
<rect width="67" height="78" fill="white"/>
</clipPath>
</defs>
</svg>
