<?xml version="1.0" encoding="UTF-8" standalone="no"?> <svg width="512" height="512" viewBox="0 0 512 512" fill="none" xmlns="http://www.w3.org/2000/svg">
<path d="M153.657 278.343C149.003 273.685 143.169 270.382 136.78 268.788C130.392 267.194 123.69 267.369 117.393 269.295C111.097 271.22 105.443 274.824 101.039 279.719C96.6348 284.613 93.6463 290.615 92.3939 297.079L91.7161 296.401C87.9902 292.696 85.0362 288.288 83.0251 283.433C81.0141 278.578 79.986 273.373 80.0003 268.118V96C80.0003 87.5131 76.6289 79.3737 70.6277 73.3726C64.6266 67.3714 56.4873 64 48.0003 64C39.5134 64 31.3741 67.3714 25.3729 73.3726C19.3717 79.3737 16.0003 87.5131 16.0003 96V310.863C15.9688 322.424 18.2306 333.877 22.6549 344.558C27.0791 355.239 33.578 364.936 41.7752 373.089L88.9705 420.283C91.2061 422.507 92.9785 425.152 94.1852 428.065C95.3918 430.978 96.0088 434.102 96.0003 437.255V496H112V437.255C112.014 432 110.986 426.794 108.975 421.939C106.964 417.084 104.01 412.676 100.285 408.97L53.0887 361.774C46.3819 355.104 41.0647 347.17 37.4449 338.431C33.825 329.692 31.9745 320.322 32.0003 310.863V96C32.0003 91.7565 33.686 87.6869 36.6866 84.6863C39.6872 81.6857 43.7569 80 48.0003 80C52.2438 80 56.3135 81.6857 59.314 84.6863C62.3146 87.6869 64.0003 91.7565 64.0003 96V268.118C63.9803 275.475 65.4197 282.763 68.2351 289.56C71.0506 296.357 75.1862 302.528 80.4027 307.716L154.344 381.657L165.657 370.343L113.656 318.342C109.856 314.537 107.723 309.379 107.724 304.001C107.726 298.624 109.863 293.467 113.666 289.665C117.469 285.862 122.626 283.725 128.003 283.724C133.381 283.723 138.539 285.857 142.344 289.657L178.912 326.226C185.619 332.896 190.936 340.83 194.556 349.569C198.176 358.308 200.026 367.678 200 377.137V496H216V377.137C216.032 365.576 213.77 354.123 209.346 343.442C204.922 332.761 198.423 323.064 190.225 314.911L153.657 278.343Z" fill="black"/>
<path d="M464 64C455.516 64.0096 447.383 67.3841 441.384 73.3832C435.384 79.3823 432.01 87.516 432 96V268.118C432.015 273.373 430.987 278.578 428.976 283.433C426.964 288.288 424.01 292.696 420.285 296.401L419.607 297.079C418.352 290.616 415.363 284.616 410.958 279.723C406.554 274.83 400.901 271.227 394.605 269.302C388.31 267.376 381.609 267.201 375.221 268.793C368.833 270.386 362.998 273.687 358.344 278.343L321.775 314.911C313.578 323.064 307.079 332.761 302.655 343.442C298.231 354.123 295.969 365.576 296 377.137V496H312V377.137C311.974 367.678 313.825 358.308 317.445 349.569C321.065 340.83 326.382 332.896 333.089 326.226L369.657 289.657C373.462 285.861 378.619 283.73 383.995 283.733C389.37 283.735 394.525 285.872 398.326 289.673C402.127 293.474 404.264 298.628 404.268 304.004C404.271 309.379 402.141 314.536 398.344 318.342L346.344 370.343L357.657 381.657L431.598 307.716C436.814 302.528 440.95 296.357 443.766 289.56C446.581 282.763 448.02 275.475 448 268.118V96C448 91.7565 449.686 87.6869 452.687 84.6863C455.687 81.6857 459.757 80 464 80C468.244 80 472.313 81.6857 475.314 84.6863C478.315 87.6869 480 91.7565 480 96V310.863C480.026 320.322 478.176 329.692 474.556 338.431C470.936 347.17 465.619 355.104 458.912 361.774L411.716 408.971C407.99 412.677 405.036 417.084 403.025 421.939C401.014 426.794 399.986 432 400 437.255V496H416V437.255C415.992 434.102 416.609 430.979 417.815 428.066C419.022 425.153 420.794 422.508 423.03 420.284L470.225 373.089C478.423 364.936 484.922 355.239 489.346 344.558C493.77 333.877 496.032 322.424 496 310.863V96C495.991 87.516 492.616 79.3823 486.617 73.3832C480.618 67.3841 472.484 64.0096 464 64Z" fill="black"/>
<path d="M416 240H400V16H256V48H112V240H96V256H416V240ZM384 32V240H272V32H384ZM128 64H256V240H208V176H144V240H128V64ZM192 240H160V192H192V240Z" fill="black"/>
<path d="M240 176H224V208H240V176Z" fill="black"/>
<path d="M240 80H224V112H240V80Z" fill="black"/>
<path d="M240 128H224V160H240V128Z" fill="black"/>
<path d="M208 80H184V96H208V80Z" fill="black"/>
<path d="M168 80H144V96H168V80Z" fill="black"/>
<path d="M320 56H288V72H320V56Z" fill="black"/>
<path d="M368 56H336V72H368V56Z" fill="black"/>
<path d="M320 104H288V120H320V104Z" fill="black"/>
<path d="M368 104H336V120H368V104Z" fill="black"/>
<path d="M320 152H288V168H320V152Z" fill="black"/>
<path d="M368 152H336V168H368V152Z" fill="black"/>
<path d="M320 200H288V216H320V200Z" fill="black"/>
<path d="M368 200H336V216H368V200Z" fill="black"/>
<path d="M208 112H184V128H208V112Z" fill="black"/>
<path d="M168 112H144V128H168V112Z" fill="black"/>
<path d="M208 144H184V160H208V144Z" fill="black"/>
<path d="M168 144H144V160H168V144Z" fill="black"/>
</svg>
