<svg width="77" height="67" viewBox="0 0 77 67" fill="none" xmlns="http://www.w3.org/2000/svg">
<path fill-rule="evenodd" clip-rule="evenodd" d="M58.9046 0.088864C59.5452 -0.088804 60.2282 0.00216104 60.8038 0.341819C61.3794 0.681477 61.8006 1.24211 61.9751 1.90084L76.9206 59.2907C77.0846 59.9452 76.9924 60.6399 76.6637 61.2252C76.5022 61.5165 76.2861 61.772 76.0279 61.9768C75.7698 62.1816 75.4747 62.3316 75.1597 62.4181L58.9046 66.9126C58.5903 66.9999 58.2622 67.0221 57.9395 66.9778C57.6167 66.9335 57.3058 66.8237 57.0247 66.6546C56.4634 66.32 56.0502 65.7745 55.8716 65.1328L42.5617 13.9849V63.1983C42.5617 63.8824 42.2976 64.5385 41.8275 65.0222C41.3575 65.5059 40.7199 65.7777 40.0551 65.7777H2.50658C1.84179 65.7777 1.20423 65.5059 0.73416 65.0222C0.264085 64.5385 0 63.8824 0 63.1983V3.79019C0 3.10611 0.264085 2.45005 0.73416 1.96633C1.20423 1.48262 1.84179 1.21087 2.50658 1.21087H40.1053C40.77 1.21087 41.4076 1.48262 41.8777 1.96633C42.3477 2.45005 42.6118 3.10611 42.6118 3.79019V4.60912L42.7372 4.57043L58.9046 0.088864ZM42.5617 6.45333V6.67902L57.833 65.3585L74.201 60.8447C74.5007 60.7586 74.7557 60.5552 74.9115 60.278C75.0673 60.0008 75.1114 59.6719 75.0344 59.3616L60.3145 2.82939C60.2308 2.52795 60.0379 2.27101 59.7756 2.11147C59.5134 1.95194 59.2016 1.90194 58.9046 1.97177L42.6118 6.48557L42.5617 6.45333ZM10.9287 48.1093C12.1334 48.1165 13.2985 48.5533 14.2254 49.3453C15.1522 50.1372 15.7836 51.2354 16.0118 52.4527C16.24 53.67 16.051 54.931 15.4769 56.021C14.9029 57.1109 13.9793 57.9624 12.8636 58.4302C11.7479 58.898 10.5091 58.9532 9.35828 58.5865C8.20743 58.2198 7.21575 57.4538 6.55221 56.4191C5.88867 55.3843 5.59433 54.1448 5.71933 52.9118C5.84433 51.6788 6.38095 50.5285 7.23774 49.6569C7.72098 49.1561 8.29613 48.7591 8.92975 48.489C9.56337 48.2189 10.2428 48.0811 10.9287 48.0835V48.1093ZM62.5955 47.6128C63.9325 47.246 65.3563 47.4384 66.5559 48.148H66.606C67.4982 48.6828 68.2159 49.4782 68.6682 50.4332C69.1205 51.3883 69.2871 52.46 69.1468 53.5126C69.0065 54.5652 68.5657 55.5512 67.8802 56.3457C67.1947 57.1401 66.2955 57.7073 65.2964 57.9752V57.9752C63.9666 58.3373 62.5516 58.1425 61.361 57.4336L61.2858 57.3949C60.111 56.6842 59.2555 55.5258 58.9046 54.1707V54.1707C58.5542 52.7985 58.7457 51.3393 59.4372 50.1118C60.1288 48.8844 61.2642 47.9883 62.5955 47.6193V47.6128ZM65.6285 49.7923C65.054 49.4495 64.3937 49.2894 63.7309 49.3319C63.068 49.3745 62.4323 49.618 61.9036 50.0316C61.375 50.4453 60.9771 51.0107 60.7601 51.6566C60.5432 52.3025 60.5167 53 60.6843 53.6613V53.7451C60.9124 54.5999 61.4537 55.3303 62.1945 55.7828H62.2383C62.9974 56.2314 63.8963 56.3586 64.7449 56.1375H64.8264C65.4596 55.9543 66.0268 55.5841 66.4578 55.0727C66.8888 54.5614 67.1647 53.9312 67.2514 53.2602C67.3381 52.5892 67.2317 51.9068 66.9455 51.2973C66.6593 50.6879 66.2058 50.1781 65.641 49.831H65.5972L65.6285 49.7923ZM31.5265 48.1093C32.7349 48.1138 33.9043 48.5495 34.8353 49.3421C35.7664 50.1348 36.4013 51.2353 36.6319 52.4559C36.8624 53.6765 36.6743 54.9416 36.0996 56.0354C35.5249 57.1292 34.5992 57.984 33.4804 58.4539C32.3616 58.9238 31.1191 58.9797 29.9647 58.6121C28.8103 58.2445 27.8157 57.4762 27.1503 56.4382C26.485 55.4002 26.1903 54.1568 26.3164 52.9202C26.4425 51.6835 26.9816 50.5302 27.8418 49.6569C28.3251 49.158 28.8994 48.7623 29.5317 48.4923C30.164 48.2223 30.8419 48.0834 31.5265 48.0835V48.1093ZM33.9077 51.024C33.3569 50.4554 32.6315 50.1011 31.8552 50.0213C31.0789 49.9415 30.2998 50.1413 29.6506 50.5865C29.0014 51.0317 28.5223 51.6948 28.2951 52.4628C28.0678 53.2308 28.1064 54.0561 28.4043 54.798C28.7022 55.54 29.241 56.1527 29.9288 56.5316C30.6165 56.9106 31.4107 57.0324 32.176 56.8762C32.9412 56.7201 33.6302 56.2957 34.1254 55.6753C34.6206 55.055 34.8913 54.2771 34.8916 53.4743C34.892 53.0194 34.8054 52.5689 34.6366 52.1484C34.4678 51.728 34.2201 51.3459 33.9077 51.024V51.024ZM13.3037 51.024C12.753 50.4603 12.0295 50.1105 11.2564 50.034C10.4832 49.9575 9.70824 50.1591 9.0633 50.6045C8.41837 51.0498 7.94336 51.7114 7.71914 52.4766C7.49492 53.2419 7.53534 54.0634 7.83354 54.8014C8.13173 55.5394 8.66926 56.1482 9.35462 56.5242C10.04 56.9003 10.8308 57.0203 11.5925 56.8638C12.3542 56.7074 13.0396 56.2841 13.5321 55.6661C14.0246 55.0481 14.2938 54.2736 14.2938 53.4743C14.2944 53.0188 14.2073 52.5677 14.0373 52.147C13.8674 51.7264 13.618 51.3447 13.3037 51.024V51.024ZM5.90926 13.8044H15.9356V16.3837H5.90926V13.8044ZM50.8459 22.4193L60.5339 19.7497L61.1918 22.2646L51.4976 24.9406L50.871 22.4193H50.8459ZM49.1227 15.8098L58.8106 13.1402L59.4686 15.6551L49.7806 18.3246L49.154 15.8098H49.1227ZM47.625 10.0773L57.3129 7.40768L57.9396 9.92252L48.283 12.5921L47.6563 10.0773H47.625ZM5.90926 7.86551H15.9356V10.4448H5.90926V7.86551V7.86551ZM26.5133 20.6396H36.5396V23.2189H26.5133V20.6396ZM26.5133 13.7979H36.5396V16.3773H26.5133V13.7979ZM26.5133 7.85906H36.5396V10.4384H26.5133V7.85906ZM5.90926 20.6396H15.9356V23.2189H5.90926V20.6396ZM22.2459 3.03574H39.629C39.9409 3.03743 40.2396 3.1657 40.4602 3.39268C40.6808 3.61966 40.8054 3.92702 40.8071 4.24802V62.7599C40.8038 63.0803 40.6787 63.3867 40.4584 63.6134C40.2382 63.84 39.9404 63.9688 39.629 63.9721H22.2459V3.03574ZM2.9327 3.03574H20.0965V63.9721H2.9327C2.62126 63.9688 2.3235 63.84 2.10327 63.6134C1.88303 63.3867 1.75787 63.0803 1.7546 62.7599V4.24802C1.75625 3.92702 1.8809 3.61966 2.10148 3.39268C2.32206 3.1657 2.62075 3.03743 2.9327 3.03574V3.03574Z" fill="#FF9D05"/>
</svg>
