<svg width="78" height="78" viewBox="0 0 78 78" fill="none" xmlns="http://www.w3.org/2000/svg">
<g clip-path="url(#clip0_205_156)">
<path fill-rule="evenodd" clip-rule="evenodd" d="M0 63.5337H10.1695V25.0415L0.202984 26.4888L0 14.2886L10.1695 12.7715V1.83447C10.1695 0.818848 11.0423 0 12.1249 0H30.7656C31.8482 0 32.721 0.818848 32.721 1.83447V9.40723L69.407 3.93555L71.4842 16.1294L67.2215 16.7515V20.0459L74.9079 27.9487C75.0364 28.0757 75.1379 28.2217 75.2124 28.374H77.594C77.8173 28.374 78 28.5454 78 28.7549V46.5283C78 46.7378 77.8173 46.9092 77.594 46.9092H51.4294C51.2061 46.9092 51.0234 46.7378 51.0234 46.5283V28.7485C51.0234 28.5391 51.2061 28.3677 51.4294 28.3677H53.8855C53.9735 28.228 54.0885 28.0947 54.2238 27.9741L63.4663 19.938V17.2974L32.721 21.7661V63.54H43.1206V78.0063H0V63.5337ZM14.0803 12.1875L20.4811 11.2354L14.0803 5.58594V12.1875ZM24.8182 10.5879L28.8034 9.99121V3.66895H16.9898L24.8182 10.5879ZM28.8102 22.3311L24.4596 22.9658L28.8102 26.8125V22.3311ZM20.0954 23.5942L14.0803 24.4702V26.8506C14.1277 26.8569 14.1751 26.8633 14.2156 26.8696H23.7965L20.0954 23.5942ZM59.2037 28.3677H70.3001L65.212 23.1372L59.2037 28.3677ZM14.0803 52.1777C14.1345 52.1841 14.1886 52.1904 14.2427 52.2031H23.8033L14.0803 43.6084V52.1777ZM18.5392 55.7324L27.3758 63.5337H28.8102V55.6436C28.6613 55.6943 28.499 55.7261 28.3433 55.7261V55.7324H18.5392ZM22.3012 63.5337L14.0803 56.272V63.5337H22.3012ZM14.0803 39.5142C14.1345 39.5205 14.1886 39.5269 14.2427 39.5396H23.8033L14.0803 30.9512V39.5142ZM18.5392 43.0688L28.8034 52.1396V42.98C28.6546 43.0308 28.4922 43.0561 28.3366 43.0625V43.0688H18.5392ZM18.5392 30.4053L28.8102 39.4761V30.3164C28.6613 30.3672 28.499 30.3989 28.3433 30.3989V30.4053H18.5392Z" fill="#FF9D05"/>
<path d="M55.4194 70.2278C55.0251 70.2278 54.7055 69.9212 54.7055 69.543C54.7055 69.1648 55.0251 68.8582 55.4194 68.8582H60.7257C61.12 68.8582 61.4397 69.1648 61.4397 69.543C61.4397 69.9212 61.12 70.2278 60.7257 70.2278H55.4194ZM55.4194 60.5387C55.0251 60.5387 54.7055 60.2321 54.7055 59.854C54.7055 59.4758 55.0251 59.1692 55.4194 59.1692H64.8334C65.2276 59.1692 65.5473 59.4758 65.5473 59.854C65.5473 60.2321 65.2276 60.5387 64.8334 60.5387H55.4194ZM49.9425 51.3658H70.3102C70.7684 51.3658 71.184 51.5447 71.4823 51.8309C71.7807 52.1171 71.9671 52.5157 71.9671 52.9551V76.4367C71.9671 76.8762 71.7807 77.2748 71.4823 77.561C71.184 77.8471 70.7684 78.026 70.3102 78.026H49.9425C49.4844 78.026 49.0688 77.8471 48.7705 77.561C48.4721 77.2748 48.2856 76.8762 48.2856 76.4367V52.9551C48.2856 52.5157 48.4721 52.1171 48.7705 51.8309C49.0688 51.5447 49.4844 51.3658 49.9425 51.3658ZM70.3102 52.7354H49.9425C49.8786 52.7354 49.82 52.7609 49.7774 52.8018C49.7348 52.8427 49.7081 52.8989 49.7081 52.9602V76.4418C49.7081 76.5032 49.7348 76.5594 49.7774 76.6002C49.82 76.6411 49.8786 76.6667 49.9425 76.6667H70.3102C70.3741 76.6667 70.4328 76.6411 70.4754 76.6002C70.518 76.5594 70.5446 76.5032 70.5446 76.4418V52.9602C70.5446 52.8989 70.518 52.8427 70.4754 52.8018C70.4328 52.7609 70.3741 52.7354 70.3102 52.7354ZM55.4194 65.3833C55.0251 65.3833 54.7055 65.0766 54.7055 64.6985C54.7055 64.3203 55.0251 64.0137 55.4194 64.0137H64.8334C65.2276 64.0137 65.5473 64.3203 65.5473 64.6985C65.5473 65.0766 65.2276 65.3833 64.8334 65.3833H55.4194Z" fill="#FF9D05"/>
</g>
<defs>
<clipPath id="clip0_205_156">
<rect width="78" height="78" fill="white"/>
</clipPath>
</defs>
</svg>
