<svg width="79" height="81" viewBox="0 0 79 81" fill="none" xmlns="http://www.w3.org/2000/svg">
<g clip-path="url(#clip0_205_179)">
<path fill-rule="evenodd" clip-rule="evenodd" d="M45.537 45.9778H72.4875C74.2205 45.9778 75.8825 46.6028 77.1079 47.7154C78.3334 48.828 79.0218 50.337 79.0218 51.9104V75.0806C79.0218 76.654 78.3334 78.163 77.1079 79.2756C75.8825 80.3882 74.2205 81.0132 72.4875 81.0132H45.537C43.804 81.0132 42.142 80.3882 40.9165 79.2756C39.6911 78.163 39.0027 76.654 39.0027 75.0806V51.8906C39.0027 50.3172 39.6911 48.8082 40.9165 47.6956C42.142 46.5831 43.804 45.958 45.537 45.958V45.9778ZM61.321 18.5823C61.7962 18.7047 62.215 18.9635 62.5147 19.32C62.8144 19.6764 62.9789 20.1114 62.9837 20.5598V24.0469H68.683C69.3404 24.0421 69.9923 24.1562 70.6006 24.3825C71.2089 24.6089 71.7615 24.943 72.2261 25.3652C73.1595 26.221 73.6816 27.3776 73.6782 28.582V39.6892H69.322V28.6216C69.3231 28.4496 69.2501 28.284 69.1187 28.1602C68.9805 28.0392 68.7951 27.9728 68.6032 27.9756H62.9837V39.6826H58.4024V23.0713H39.3584C39.0538 23.0748 38.7514 23.0233 38.4688 22.9199C38.1862 22.8164 37.929 22.6631 37.7122 22.4687C37.4954 22.2743 37.3233 22.0427 37.2058 21.7875C37.0883 21.5322 37.0278 21.2583 37.0279 20.9817V4.14625H4.58857V67.0847H31.7714V71.2442H11.8852V76.4649C11.8841 76.6369 11.9571 76.8025 12.0885 76.9263C12.2249 77.0457 12.4073 77.1119 12.5968 77.1109H31.7568V81.0198H12.6258C11.2992 81.0061 10.0311 80.5221 9.09237 79.671C8.1536 78.8199 7.6186 77.6693 7.60162 76.4649V71.2705H4.10939C3.02089 71.2715 1.97643 70.8803 1.20525 70.1829C0.821614 69.838 0.517462 69.4273 0.310536 68.9746C0.10361 68.5219 -0.00194575 68.0363 2.71536e-05 67.5462V3.72437C2.63088e-05 3.23473 0.10637 2.74989 0.312974 2.29759C0.519578 1.8453 0.822386 1.43444 1.20407 1.08851C1.58576 0.742588 2.03883 0.468391 2.53735 0.281612C3.03588 0.0948333 3.57008 -0.000860796 4.10939 5.83398e-06H39.3584C39.6958 -0.000674435 40.0289 0.0677242 40.3331 0.200112C40.6374 0.332499 40.9048 0.525467 41.1155 0.764654L61.321 18.5625V18.5823ZM14.5207 34.0269C14.3227 34.0311 14.1277 34.0711 13.9469 34.1447C13.7662 34.2182 13.6034 34.3237 13.4682 34.4551C13.333 34.5865 13.228 34.7411 13.1594 34.9098C13.0908 35.0784 13.0599 35.2579 13.0687 35.4375C13.0557 35.6177 13.0837 35.7984 13.1509 35.9684C13.2181 36.1384 13.323 36.294 13.4591 36.4256C13.5953 36.5573 13.7597 36.6621 13.9424 36.7337C14.125 36.8052 14.3219 36.8419 14.5207 36.8416H41.3841C41.5815 36.8373 41.7759 36.7975 41.9562 36.7244C42.1364 36.6512 42.2988 36.5463 42.434 36.4156C42.5691 36.2849 42.6743 36.1312 42.7433 35.9633C42.8124 35.7953 42.8439 35.6166 42.8362 35.4375C42.8501 35.2568 42.8229 35.0754 42.7562 34.9046C42.6895 34.7339 42.5848 34.5774 42.4485 34.445C42.3123 34.3127 42.1474 34.2072 41.9643 34.1353C41.7811 34.0633 41.5836 34.0264 41.3841 34.0269H14.5207ZM14.5207 44.0925C14.3268 44.0976 14.136 44.1378 13.9595 44.2109C13.783 44.284 13.6244 44.3884 13.4932 44.5181C13.3619 44.6477 13.2605 44.7999 13.1951 44.9657C13.1297 45.1315 13.1015 45.3076 13.1122 45.4834C13.0974 45.6614 13.1226 45.8402 13.1861 46.0091C13.2497 46.178 13.3504 46.3335 13.4821 46.466C13.6138 46.5985 13.7738 46.7053 13.9523 46.7801C14.1308 46.8548 14.3242 46.8958 14.5207 46.9007H31.7278V44.0925H14.5207ZM14.5207 54.1516C14.3268 54.1583 14.1363 54.2002 13.9605 54.2749C13.7846 54.3495 13.6271 54.4554 13.4971 54.5863C13.3672 54.7172 13.2674 54.8705 13.2038 55.037C13.1402 55.2034 13.114 55.3798 13.1268 55.5557C13.114 55.7315 13.1402 55.9079 13.2038 56.0744C13.2674 56.2409 13.3672 56.3941 13.4971 56.525C13.6271 56.6559 13.7846 56.7618 13.9605 56.8365C14.1363 56.9112 14.3268 56.9531 14.5207 56.9597H31.7278V54.1516H14.5207ZM14.5207 23.9678C14.3219 23.9674 14.125 24.0041 13.9424 24.0757C13.7597 24.1472 13.5953 24.2521 13.4591 24.3837C13.323 24.5154 13.2181 24.671 13.1509 24.841C13.0837 25.0109 13.0557 25.1916 13.0687 25.3718C13.0557 25.552 13.0837 25.7327 13.1509 25.9027C13.2181 26.0727 13.323 26.2283 13.4591 26.36C13.5953 26.4916 13.7597 26.5965 13.9424 26.668C14.125 26.7395 14.3219 26.7763 14.5207 26.7759H30.4137C30.607 26.7684 30.7967 26.7258 30.9717 26.6508C31.1467 26.5757 31.3034 26.4697 31.4326 26.3389C31.5618 26.2081 31.6609 26.0552 31.724 25.8891C31.7872 25.723 31.8132 25.5471 31.8004 25.3718C31.8132 25.1965 31.7872 25.0207 31.724 24.8546C31.6609 24.6885 31.5618 24.5356 31.4326 24.4048C31.3034 24.274 31.1467 24.1679 30.9717 24.0929C30.7967 24.0178 30.607 23.9753 30.4137 23.9678H14.5207ZM14.5207 13.9087C14.3268 13.9154 14.1363 13.9573 13.9605 14.0319C13.7846 14.1066 13.6271 14.2125 13.4971 14.3434C13.3672 14.4743 13.2674 14.6275 13.2038 14.794C13.1402 14.9605 13.114 15.1369 13.1268 15.3128C13.114 15.4886 13.1402 15.665 13.2038 15.8315C13.2674 15.998 13.3672 16.1512 13.4971 16.2821C13.6271 16.413 13.7846 16.5189 13.9605 16.5936C14.1363 16.6682 14.3268 16.7101 14.5207 16.7168H23.2332C23.4265 16.7093 23.6163 16.6667 23.7912 16.5917C23.9662 16.5167 24.1229 16.4106 24.2521 16.2798C24.3813 16.149 24.4804 15.9961 24.5435 15.83C24.6067 15.6639 24.6327 15.4881 24.6199 15.3128C24.6327 15.1374 24.6067 14.9616 24.5435 14.7955C24.4804 14.6294 24.3813 14.4765 24.2521 14.3457C24.1229 14.2149 23.9662 14.1088 23.7912 14.0338C23.6163 13.9588 23.4265 13.9162 23.2332 13.9087H14.5207ZM41.6527 7.3169L55.353 18.9119H41.6382V7.29053L41.6527 7.3169ZM58.9759 52.1609C63.2087 54.5933 67.0349 55.7468 70.3094 55.4568C70.8902 66.0037 66.5993 72.2 59.0195 74.7971C51.6938 72.3714 47.3594 66.419 47.6788 55.3052C51.7477 55.5784 55.7807 54.4511 58.9759 52.1477V52.1609ZM59.0776 54.7976C62.3375 56.6697 65.2779 57.5596 67.79 57.3552C68.2256 65.4566 64.9294 70.2488 59.0776 72.2461L58.9687 72.2066V54.8174L59.0485 54.7647L59.0776 54.7976Z" fill="#FF9D05"/>
</g>
<defs>
<clipPath id="clip0_205_179">
<rect width="79" height="81" fill="white"/>
</clipPath>
</defs>
</svg>
