<svg width="78" height="86" viewBox="0 0 78 86" fill="none" xmlns="http://www.w3.org/2000/svg">
<path fill-rule="evenodd" clip-rule="evenodd" d="M41.3401 20.1065H53.0337C53.7856 20.1065 54.5067 20.3798 55.0384 20.8664C55.5701 21.3529 55.8688 22.0128 55.8688 22.7009V32.8334C55.8688 33.5214 55.5701 34.1813 55.0384 34.6679C54.5067 35.1544 53.7856 35.4278 53.0337 35.4278H41.3401C40.5882 35.4278 39.867 35.1544 39.3353 34.6679C38.8036 34.1813 38.5049 33.5214 38.5049 32.8334V22.6922C38.5049 22.0041 38.8036 21.3442 39.3353 20.8577C39.867 20.3712 40.5882 20.0978 41.3401 20.0978V20.1065ZM27.8824 14.8802C27.7965 14.8821 27.7119 14.8996 27.6335 14.9317C27.555 14.9639 27.4844 15.0101 27.4258 15.0675C27.3671 15.125 27.3215 15.1926 27.2918 15.2663C27.262 15.3401 27.2486 15.4186 27.2524 15.4971C27.2468 15.5759 27.2589 15.6549 27.2881 15.7293C27.3172 15.8036 27.3627 15.8717 27.4218 15.9292C27.4809 15.9868 27.5523 16.0327 27.6315 16.0639C27.7107 16.0952 27.7961 16.1113 27.8824 16.1111H39.5382C39.6238 16.1093 39.7082 16.0919 39.7864 16.0599C39.8646 16.0279 39.9351 15.982 39.9937 15.9249C40.0524 15.8677 40.098 15.8005 40.1279 15.727C40.1579 15.6536 40.1716 15.5754 40.1682 15.4971C40.1743 15.4181 40.1625 15.3388 40.1335 15.2641C40.1046 15.1894 40.0592 15.121 40 15.0631C39.9409 15.0052 39.8694 14.9591 39.7899 14.9276C39.7105 14.8962 39.6248 14.88 39.5382 14.8802H27.8824ZM27.8824 19.282C27.7983 19.2842 27.7155 19.3018 27.6389 19.3338C27.5624 19.3657 27.4935 19.4114 27.4366 19.4681C27.3796 19.5248 27.3356 19.5914 27.3073 19.6639C27.2789 19.7364 27.2666 19.8134 27.2713 19.8903C27.2649 19.9681 27.2758 20.0463 27.3034 20.1202C27.331 20.194 27.3746 20.262 27.4318 20.32C27.4889 20.3779 27.5583 20.4246 27.6358 20.4573C27.7133 20.49 27.7972 20.5079 27.8824 20.51H35.3484V19.282H27.8824ZM27.8824 23.681C27.7983 23.6839 27.7156 23.7022 27.6393 23.7349C27.5631 23.7675 27.4947 23.8138 27.4383 23.8711C27.3819 23.9283 27.3386 23.9953 27.311 24.0681C27.2834 24.1409 27.2721 24.2181 27.2776 24.295C27.2721 24.3719 27.2834 24.449 27.311 24.5218C27.3386 24.5946 27.3819 24.6616 27.4383 24.7189C27.4947 24.7761 27.5631 24.8224 27.6393 24.8551C27.7156 24.8877 27.7983 24.9061 27.8824 24.909H35.3484V23.681H27.8824ZM27.8824 10.4813C27.7961 10.4811 27.7107 10.4972 27.6315 10.5285C27.5523 10.5598 27.4809 10.6056 27.4218 10.6632C27.3627 10.7208 27.3172 10.7888 27.2881 10.8632C27.2589 10.9375 27.2468 11.0165 27.2524 11.0953C27.2468 11.1741 27.2589 11.2531 27.2881 11.3275C27.3172 11.4018 27.3627 11.4699 27.4218 11.5274C27.4809 11.585 27.5523 11.6309 27.6315 11.6621C27.7107 11.6934 27.7961 11.7095 27.8824 11.7093H34.7782C34.8621 11.706 34.9444 11.6874 35.0204 11.6546C35.0963 11.6218 35.1643 11.5754 35.2203 11.5182C35.2764 11.461 35.3194 11.3941 35.3468 11.3215C35.3742 11.2489 35.3855 11.172 35.3799 11.0953C35.3855 11.0187 35.3742 10.9417 35.3468 10.8691C35.3194 10.7965 35.2764 10.7296 35.2203 10.6724C35.1643 10.6152 35.0963 10.5688 35.0204 10.536C34.9444 10.5032 34.8621 10.4846 34.7782 10.4813H27.8824ZM27.8824 6.08239C27.7983 6.08531 27.7156 6.10363 27.6393 6.13629C27.5631 6.16894 27.4947 6.21525 27.4383 6.2725C27.3819 6.32974 27.3386 6.39674 27.311 6.46955C27.2834 6.54236 27.2721 6.6195 27.2776 6.69639C27.2721 6.77329 27.2834 6.85043 27.311 6.92324C27.3386 6.99605 27.3819 7.06305 27.4383 7.12029C27.4947 7.17754 27.5631 7.22385 27.6393 7.2565C27.7156 7.28916 27.7983 7.30748 27.8824 7.3104H31.6627C31.7466 7.30711 31.8289 7.28851 31.9048 7.25569C31.9807 7.22287 32.0487 7.1765 32.1048 7.1193C32.1608 7.06209 32.2038 6.99521 32.2312 6.92259C32.2586 6.84997 32.2699 6.77306 32.2644 6.69639C32.2699 6.61973 32.2586 6.54282 32.2312 6.4702C32.2038 6.39758 32.1608 6.3307 32.1048 6.27349C32.0487 6.21629 31.9807 6.16992 31.9048 6.1371C31.8289 6.10428 31.7466 6.08568 31.6627 6.08239H27.8824ZM48.1949 8.12619C48.4011 8.17972 48.5828 8.29289 48.7128 8.44878C48.8429 8.60466 48.9143 8.79488 48.9163 8.99098V10.5159H51.3829C51.6682 10.5138 51.951 10.5637 52.215 10.6627C52.4789 10.7617 52.7187 10.9078 52.9202 11.0924C53.3252 11.4667 53.5518 11.9725 53.5503 12.4992V17.3564H51.6602V12.5165C51.6607 12.4412 51.629 12.3688 51.572 12.3147C51.512 12.2618 51.4316 12.2327 51.3483 12.234H48.91V17.3535H46.9223V10.0893H38.6593C38.5271 10.0908 38.3959 10.0683 38.2733 10.0231C38.1506 9.97781 38.0391 9.91074 37.945 9.82574C37.8509 9.74073 37.7762 9.63948 37.7253 9.52785C37.6743 9.41623 37.6481 9.29645 37.6481 9.17547V1.81319H23.573V29.3367H35.3673V31.1557H26.7389V33.4387C26.7384 33.5139 26.7701 33.5864 26.8271 33.6405C26.8863 33.6927 26.9654 33.7217 27.0476 33.7212H35.361V35.4306H27.0602C26.4847 35.4247 25.9344 35.213 25.5271 34.8408C25.1198 34.4686 24.8877 33.9654 24.8803 33.4387V31.1672H23.3651C22.8928 31.1676 22.4396 30.9966 22.105 30.6916C21.9385 30.5408 21.8066 30.3611 21.7168 30.1632C21.627 29.9652 21.5812 29.7528 21.582 29.5385V1.6287C21.582 1.41457 21.6282 1.20255 21.7178 1.00476C21.8075 0.806967 21.9389 0.627292 22.1045 0.476016C22.2701 0.32474 22.4667 0.204831 22.683 0.123151C22.8993 0.0414714 23.1311 -0.000376433 23.3651 2.55125e-06H38.6593C38.8057 -0.000294936 38.9502 0.0296163 39.0822 0.0875105C39.2142 0.145405 39.3302 0.229791 39.4216 0.33439L48.1886 8.11754L48.1949 8.12619ZM39.6484 3.18821L45.5992 8.27032H39.6484V3.18821ZM50.5639 24.1652C50.5172 24.1213 50.4614 24.0864 50.3997 24.0625C50.338 24.0387 50.2717 24.0264 50.2048 24.0264C50.1378 24.0264 50.0715 24.0387 50.0098 24.0625C49.9482 24.0864 49.8923 24.1213 49.8457 24.1652L49.3038 24.6639C49.1543 24.5775 48.9985 24.5004 48.8376 24.4333C48.6769 24.367 48.5226 24.3094 48.343 24.2575V23.4907C48.3448 23.4295 48.3325 23.3686 48.307 23.312C48.2815 23.2554 48.2433 23.2044 48.1949 23.1621C48.149 23.1183 48.0937 23.0837 48.0324 23.0604C47.9712 23.037 47.9053 23.0255 47.839 23.0266H46.7837C46.6501 23.0268 46.522 23.0755 46.4277 23.1621C46.3797 23.2047 46.3419 23.2558 46.3164 23.3123C46.2909 23.3689 46.2784 23.4296 46.2796 23.4907V24.1941C46.1052 24.2307 45.9337 24.2778 45.7661 24.3353C45.606 24.3941 45.4493 24.4605 45.2968 24.5342L44.6919 23.9894C44.6478 23.9448 44.5938 23.9094 44.5335 23.8855C44.4732 23.8617 44.408 23.8499 44.3422 23.851C44.2752 23.8505 44.2088 23.8625 44.1471 23.8863C44.0853 23.9101 44.0295 23.9452 43.9831 23.9894L43.2554 24.6639C43.2072 24.7065 43.169 24.7576 43.143 24.8141C43.117 24.8705 43.1038 24.9313 43.1042 24.9926C43.1036 25.0539 43.1167 25.1147 43.1427 25.1712C43.1687 25.2277 43.2071 25.2787 43.2554 25.3212L43.8004 25.8228C43.7059 25.9586 43.6217 26.1002 43.5484 26.2465C43.4743 26.3936 43.4101 26.5448 43.3562 26.6991H42.5151C42.4489 26.6984 42.3831 26.71 42.3219 26.7333C42.2607 26.7566 42.2053 26.7911 42.1592 26.8346C42.1108 26.8768 42.0726 26.9279 42.0471 26.9845C42.0216 27.0411 42.0093 27.102 42.0111 27.1632V28.126C42.0106 28.1862 42.0234 28.2458 42.0489 28.3014C42.0743 28.3569 42.1119 28.407 42.1592 28.4489C42.2047 28.4933 42.2599 28.5286 42.3212 28.5524C42.3825 28.5762 42.4485 28.5881 42.5151 28.5872H43.2838C43.3244 28.746 43.377 28.9021 43.4413 29.0542C43.5047 29.2048 43.5772 29.3521 43.6587 29.4953L43.0601 30.0372C43.0119 30.0786 42.9736 30.1286 42.9476 30.1842C42.9216 30.2397 42.9084 30.2996 42.9089 30.3601C42.9092 30.4212 42.9227 30.4818 42.9486 30.5382C42.9746 30.5946 43.0125 30.6457 43.0601 30.6887L43.8004 31.3719C43.8978 31.4552 44.0262 31.5015 44.1595 31.5015C44.2929 31.5015 44.4212 31.4552 44.5187 31.3719L45.0636 30.8645C45.2125 30.9512 45.3684 31.0273 45.5299 31.0922C45.691 31.1602 45.8561 31.2199 46.0245 31.271V32.0378C46.0228 32.0987 46.0349 32.1593 46.0598 32.2158C46.0847 32.2723 46.122 32.3235 46.1694 32.3664C46.2163 32.4096 46.2723 32.4436 46.3341 32.4664C46.3958 32.4892 46.4619 32.5003 46.5285 32.499H47.5807C47.6466 32.4994 47.712 32.4879 47.7731 32.4652C47.8342 32.4424 47.8898 32.4088 47.9366 32.3664C47.9846 32.3238 48.0224 32.2726 48.0479 32.2161C48.0734 32.1596 48.0859 32.0989 48.0847 32.0378V31.3344C48.2586 31.2986 48.4293 31.2504 48.595 31.1903C48.7601 31.1334 48.9211 31.0669 49.077 30.9914L49.6724 31.5391C49.7182 31.5827 49.7733 31.6175 49.8342 31.6412C49.8951 31.665 49.9606 31.6772 50.0268 31.6772C50.093 31.6772 50.1585 31.665 50.2194 31.6412C50.2803 31.6175 50.3353 31.5827 50.3812 31.5391L51.1278 30.8645C51.2197 30.7759 51.2705 30.6581 51.2695 30.5359C51.2716 30.4752 51.26 30.4147 51.2357 30.3582C51.2113 30.3017 51.1746 30.2504 51.1278 30.2073L50.5639 29.7057C50.6578 29.5695 50.7419 29.428 50.8159 29.2819C50.8887 29.1343 50.9528 28.9832 51.0081 28.8294H51.8555C51.9222 28.8298 51.9883 28.818 52.0501 28.7948C52.1118 28.7716 52.1679 28.7375 52.215 28.6943C52.2622 28.6511 52.2996 28.5998 52.3249 28.5433C52.3502 28.4868 52.3631 28.4263 52.3627 28.3653V27.4025C52.3628 27.3423 52.3498 27.2828 52.3244 27.2273C52.2989 27.1718 52.2616 27.1216 52.2146 27.0796C52.1686 27.0349 52.1128 26.9996 52.051 26.9757C51.9892 26.9519 51.9226 26.9402 51.8555 26.9412H51.09C51.048 26.7846 50.9954 26.6306 50.9325 26.48C50.8715 26.3294 50.7989 26.183 50.7151 26.0418L51.3105 25.4884C51.3596 25.4482 51.3988 25.3988 51.4254 25.3436C51.4521 25.2885 51.4655 25.2287 51.4649 25.1684C51.4647 25.1069 51.4509 25.0461 51.4244 24.9896C51.3979 24.9332 51.3591 24.8822 51.3105 24.8398L50.5639 24.1652ZM47.1869 25.8775C47.4628 25.8761 47.7361 25.9261 47.9902 26.0246C48.2353 26.119 48.4587 26.2549 48.6486 26.4252C48.834 26.5995 48.9825 26.8038 49.0865 27.0277C49.1924 27.2612 49.247 27.5114 49.247 27.7642C49.247 28.017 49.1924 28.2673 49.0865 28.5007C48.8803 28.9546 48.4861 29.3152 47.9902 29.5039C47.7356 29.601 47.4626 29.6509 47.1869 29.6509C46.9111 29.6509 46.6381 29.601 46.3836 29.5039C46.1383 29.4084 45.915 29.2715 45.7252 29.1003C45.5392 28.927 45.3897 28.7237 45.2842 28.5007C45.1782 28.2673 45.1236 28.017 45.1236 27.7642C45.1236 27.5114 45.1782 27.2612 45.2842 27.0277C45.3902 26.8042 45.5396 26.6 45.7252 26.4252C45.9151 26.2549 46.1385 26.119 46.3836 26.0246C46.6377 25.9261 46.911 25.8761 47.1869 25.8775Z" fill="#FF9D05"/>
<path fill-rule="evenodd" clip-rule="evenodd" d="M61.6548 77.0181C63.7178 77.0181 65.3872 77.3995 65.3872 77.8696C65.3872 78.3396 63.7178 78.7211 61.6548 78.7211C59.5918 78.7211 57.9224 78.3396 57.9224 77.8696C57.9224 77.3995 59.5918 77.0181 61.6548 77.0181ZM15.9199 45.4566V83.8167C15.9199 84.2118 15.7676 84.5661 15.5327 84.825C15.2915 85.0838 14.9614 85.2405 14.5933 85.2405H8.29639C7.93457 85.2405 7.60449 85.0838 7.36328 84.825C7.12207 84.5661 6.97607 84.2118 6.97607 83.8235V45.4566H1.87891C1.3584 45.4566 0.888672 45.2318 0.552246 44.864C0.209473 44.4961 0 43.992 0 43.4402V37.4386C0 36.88 0.209473 36.3758 0.552246 36.0148C0.89502 35.6537 1.3584 35.4221 1.87891 35.4221H76.1211C76.6416 35.4221 77.1113 35.6469 77.4478 36.0148C77.7842 36.3827 78 36.8868 78 37.4386V43.4402C78 43.9988 77.7905 44.5029 77.4478 44.864C77.105 45.2318 76.6353 45.4566 76.1211 45.4566H76.0005V83.8167C76.0005 84.205 75.8481 84.5593 75.6133 84.8181L75.6069 84.825C75.3657 85.0838 75.0356 85.2405 74.6738 85.2405H48.9912C48.623 85.2405 48.293 85.0838 48.0518 84.825C48.0073 84.7773 47.9692 84.7296 47.9312 84.6751C47.7598 84.4367 47.6582 84.1369 47.6582 83.8167V45.4566H15.9199ZM49.8545 56.295H73.8105V45.4566H49.8545V56.295ZM73.8105 58.6453H49.8545V69.688H73.8105V58.6453ZM73.8105 72.0383H49.8545V82.8903H73.8105V72.0383ZM75.8101 37.7724H2.18994V43.1064H75.8101V37.7724ZM13.73 45.4566H9.15332V82.8834H13.73V45.4566ZM61.6548 49.9119C63.7178 49.9119 65.3872 50.2729 65.3872 50.7226C65.3872 51.1722 63.7178 51.5332 61.6548 51.5332C59.5918 51.5332 57.9224 51.1722 57.9224 50.7226C57.9224 50.2729 59.5918 49.9119 61.6548 49.9119ZM61.6548 63.4411C63.7178 63.4411 65.3872 63.8226 65.3872 64.2927C65.3872 64.7627 63.7178 65.1442 61.6548 65.1442C59.5918 65.1442 57.9224 64.7627 57.9224 64.2927C57.9224 63.8226 59.5918 63.4411 61.6548 63.4411Z" fill="#FF9D05"/>
</svg>
