<svg width="79" height="79" viewBox="0 0 79 79" fill="none" xmlns="http://www.w3.org/2000/svg">
<path fill-rule="evenodd" clip-rule="evenodd" d="M79 45.3058H63.0383V73.2466H79V45.3058ZM59.8224 70.8999V47.5752H49.1486C44.6189 48.3724 40.0958 50.7898 35.5661 53.5929H27.2781C23.5197 53.8114 21.5588 57.5532 25.1995 60.0219C28.1147 62.1178 31.945 62.0021 35.8799 61.6549C38.5924 61.5199 38.7101 65.1073 35.8799 65.1202C34.8994 65.1973 33.8275 64.9659 32.8993 64.9659C27.9905 64.9659 23.9445 64.0401 21.4673 60.2277L20.2254 57.3732L7.89131 51.3234C1.71448 49.3239 -2.67139 55.6759 1.87789 60.0927C10.4745 66.2699 19.6699 71.5976 29.3305 75.9982C36.1348 80.0678 42.9456 79.9328 49.7499 75.9982L59.8028 70.8999H59.8224ZM38.867 4.17891L46.1288 11.6945H38.867V4.17891ZM14.9832 5.02755H13.3557C13.0954 5.02329 12.8369 5.07002 12.5952 5.16504C12.3535 5.26005 12.1335 5.40145 11.9479 5.58097C11.7624 5.7605 11.615 5.97456 11.5144 6.21069C11.4138 6.44681 11.3621 6.70027 11.3621 6.95628V43.4799C11.3606 43.7368 11.4113 43.9914 11.5112 44.2288C11.6111 44.4661 11.7582 44.6815 11.9438 44.8622C12.1277 45.0467 12.3475 45.193 12.59 45.2924C12.8326 45.3918 13.0929 45.4423 13.3557 45.4408H40.6775C41.2057 45.4391 41.7118 45.2319 42.0853 44.8646C42.4588 44.4972 42.6694 43.9994 42.6711 43.4799V41.6733H40.4422V43.2485H13.591V7.20701H14.9832V5.02755ZM24.0491 33.4312H43.5666V31.6054H24.0491V33.4312ZM24.0491 27.7994H43.5666V25.9735H24.0491V27.8122V27.7994ZM24.0491 10.9166H30.5854V9.09073H24.0491V10.9295V10.9166ZM24.0491 16.542H33.2784V14.7162H24.0491V16.5549V16.542ZM24.0491 22.1675H43.7953V20.3416H24.0491V22.1803V22.1675ZM50.1944 12.6396C50.1935 12.3797 50.1071 12.1272 49.948 11.9197C49.7889 11.7122 49.5658 11.561 49.312 11.4888L38.5663 0.437188C38.4562 0.303795 38.3179 0.195588 38.161 0.12009C38.0041 0.0445918 37.8324 0.00361536 37.6577 9.83041e-06H19.8201C19.5343 -0.000844504 19.2512 0.0539951 18.9871 0.161362C18.723 0.268728 18.4832 0.426494 18.2814 0.625549C18.0796 0.824604 17.9199 1.061 17.8116 1.32109C17.7032 1.58119 17.6483 1.85982 17.65 2.14089V37.2887C17.6483 37.5698 17.7032 37.8484 17.8116 38.1085C17.9199 38.3686 18.0796 38.605 18.2814 38.804C18.4832 39.0031 18.723 39.1609 18.9871 39.2682C19.2512 39.3756 19.5343 39.4304 19.8201 39.4296H47.9982C48.284 39.4304 48.5671 39.3756 48.8312 39.2682C49.0953 39.1609 49.3352 39.0031 49.5369 38.804C49.7387 38.605 49.8984 38.3686 50.0067 38.1085C50.1151 37.8484 50.17 37.5698 50.1683 37.2887V12.6524L50.1944 12.6396ZM47.7171 14.0797V37.0122H20.075V2.37877H36.4158V12.8582C36.4176 13.1759 36.5471 13.4801 36.7761 13.7041C37.0052 13.9282 37.3151 14.054 37.6381 14.054L47.7171 14.0797Z" fill="#FF9D05"/>
</svg>
