<svg width="77" height="76" viewBox="0 0 77 76" fill="none" xmlns="http://www.w3.org/2000/svg">
<path d="M37.1446 39.3612L57.8799 60.4337C57.9572 60.5065 58 60.6007 58 60.6983C58 60.796 57.9572 60.8902 57.8799 60.9629L55.4081 63.4987C55.333 63.5744 55.2276 63.6244 55.1118 63.6393C54.996 63.6542 54.8777 63.6329 54.7792 63.5795L28.1919 48.8207C24.637 46.6671 23.6151 44.0726 24.1217 41.8381C24.3708 40.7414 24.9753 39.7239 25.8686 38.8981C26.7488 38.0736 27.8729 37.4599 29.1265 37.1194C31.6332 36.4506 34.6204 36.943 37.1184 39.3244L37.1446 39.3612Z" fill="#FF9D05"/>
<path d="M12.1148 75.8341C6.49716 69.8087 2.59711 61.9983 0.920407 53.4157C-0.756292 44.833 -0.132286 35.874 2.71151 27.7005C5.5553 19.527 10.4877 12.5161 16.8691 7.57682C23.2504 2.63756 30.7864 -0.00214325 38.4997 2.40276e-05C43.5379 -0.00601197 48.5274 1.12524 53.1802 3.32852C62.6204 7.82214 70.1247 16.3794 74.0638 27.1423C76.4832 33.7574 77.4301 40.952 76.8201 48.0853C76.2101 55.2186 74.0621 62.0692 70.5675 68.0271C69.1699 70.4096 67.5753 72.634 65.8056 74.6698C65.747 74.7353 65.6683 74.7719 65.5863 74.7719C65.5043 74.7719 65.4255 74.7353 65.367 74.6698L63.4434 72.4842C63.4031 72.4675 63.3667 72.4407 63.3369 72.4056L57.9734 66.2914C57.916 66.2247 57.8839 66.1349 57.8839 66.0414C57.8839 65.948 57.916 65.8582 57.9734 65.7914L60.7805 62.5844C60.839 62.5189 60.9178 62.4823 60.9998 62.4823C61.0818 62.4823 61.1605 62.5189 61.2191 62.5844L65.3607 67.3057C66.2389 66.0076 67.0446 64.6478 67.773 63.2344C70.6786 57.5965 72.2624 51.201 72.372 44.6633H66.6702C66.5871 44.6633 66.5075 44.6257 66.4487 44.5587C66.39 44.4918 66.3569 44.4009 66.3569 44.3062V39.7849C66.3569 39.6902 66.39 39.5993 66.4487 39.5323C66.5075 39.4654 66.5871 39.4277 66.6702 39.4277H72.159C71.7387 35.3245 70.7401 31.3255 69.2016 27.5851C67.6453 23.8107 65.568 20.3453 63.0487 17.3211L59.377 21.5067C59.3184 21.5721 59.2397 21.6088 59.1577 21.6088C59.0757 21.6088 58.9969 21.5721 58.9384 21.5067L56.1251 18.2996C56.0677 18.2329 56.0355 18.1431 56.0355 18.0496C56.0355 17.9562 56.0677 17.8664 56.1251 17.7996L59.6652 13.764C56.8612 11.1904 53.7163 9.14107 50.3481 7.69271C47.0586 6.26417 44.8781 5.44276 41.2002 5.27848V10.9926C41.2002 11.0874 41.1672 11.1782 41.1084 11.2452C41.0497 11.3121 40.97 11.3498 40.8869 11.3498H36.9019C36.8188 11.3498 36.7391 11.3121 36.6804 11.2452C36.6216 11.1782 36.5886 11.0874 36.5886 10.9926V5.42133C32.9357 5.81418 28.0986 6.84987 24.878 8.48555C21.5766 10.1401 18.5269 12.3823 15.8429 15.1283L19.5209 19.321C19.5783 19.3878 19.6104 19.4775 19.6104 19.571C19.6104 19.6645 19.5783 19.7543 19.5209 19.821L16.7076 23.0281C16.649 23.0935 16.5703 23.1302 16.4883 23.1302C16.4063 23.1302 16.3275 23.0935 16.269 23.0281L12.6349 18.8853C10.265 22.0532 8.36062 25.6376 6.99575 29.4994C5.65911 33.3631 4.87226 37.4454 4.66491 41.592H10.304C10.3871 41.592 10.4668 41.6296 10.5256 41.6966C10.5843 41.7635 10.6173 41.8544 10.6173 41.9491V46.4919C10.6173 46.5866 10.5843 46.6774 10.5256 46.7444C10.4668 46.8114 10.3871 46.849 10.304 46.849H4.66491C4.80114 48.9145 5.08402 50.964 5.51078 52.9774C5.95953 55.1097 6.56958 57.1937 7.3341 59.2059C7.98699 60.9333 8.74924 62.6044 9.61481 64.2058C10.4199 65.7039 11.316 67.1359 12.2965 68.4914L16.8329 63.3201C16.8915 63.2546 16.9702 63.218 17.0522 63.218C17.1342 63.218 17.2129 63.2546 17.2715 63.3201L20.0848 66.5271C20.1422 66.5939 20.1743 66.6837 20.1743 66.7771C20.1743 66.8706 20.1422 66.9604 20.0848 67.0271C17.5472 69.9485 15.0409 72.7841 12.5346 75.8198C12.5066 75.8528 12.473 75.8791 12.4359 75.8971C12.3987 75.915 12.3588 75.9243 12.3185 75.9243C12.2781 75.9243 12.2382 75.915 12.2011 75.8971C12.1639 75.8791 12.1303 75.8528 12.1023 75.8198L12.1148 75.8341Z" fill="#FF9D05"/>
<path d="M28.1113 71.0244C29.0261 72.3869 29.9472 73.6516 30.862 74.8246L30.8044 75.2217C29.5575 75.5916 28.2692 75.8192 26.9663 75.8999L26.608 75.6066L26.3777 75.1484C26.2754 74.9529 26.0622 74.5456 25.738 73.9265C25.431 73.3155 25.1623 72.7046 24.9384 72.1608H23.7038L23.8382 75.6861H20L20.1919 72.2158L20 63.87H25.8724C27.0231 63.7995 28.161 64.1343 29.0708 64.8109C29.4582 65.1548 29.7607 65.5765 29.9565 66.0456C30.1523 66.5147 30.2365 67.0196 30.2031 67.5236C30.2035 68.2102 30.0137 68.8847 29.653 69.4787C29.275 70.1024 28.7573 70.6386 28.1369 71.0489L28.1113 71.0244ZM26.1411 67.8657C26.1525 67.6737 26.1238 67.4813 26.0569 67.2999C25.9899 67.1185 25.8859 66.9515 25.7508 66.8088C25.3876 66.5355 24.9333 66.3966 24.4715 66.4178L23.7806 66.4666L23.7038 69.5215L25.0984 69.5948C25.4235 69.4634 25.6983 69.2394 25.8852 68.9533C26.0654 68.6284 26.1515 68.2635 26.1347 67.8963L26.1411 67.8657ZM35.858 71.8431L36.0115 75.68H32.1734L32.3653 72.2097L32.1734 63.8639H36.0755L35.858 71.8431ZM43.2336 63.644C44.4628 63.6478 45.681 63.8652 46.8287 64.2855L46.189 67.2609L45.6517 67.4808C45.1517 67.1782 44.62 66.9264 44.0653 66.7293C43.6585 66.5683 43.2257 66.4753 42.7859 66.4544C42.5415 66.4422 42.2988 66.4996 42.0886 66.6194C42.0091 66.6646 41.9436 66.7292 41.8986 66.8064C41.8537 66.8837 41.831 66.9709 41.8327 67.0593C41.8345 67.1852 41.8716 67.3083 41.9403 67.4158C42.0089 67.5232 42.1065 67.6111 42.2229 67.6702C42.6324 67.9155 43.0599 68.1319 43.5023 68.3179C44.1035 68.572 44.6907 68.8554 45.2615 69.1671C45.7349 69.446 46.144 69.814 46.4641 70.2485C46.8219 70.7429 47.0036 71.3341 46.9823 71.9348C46.9905 72.6555 46.7672 73.3613 46.3426 73.957C45.8981 74.5671 45.2907 75.0523 44.5834 75.3623C43.719 75.7317 42.7795 75.9133 41.8327 75.8938C40.4372 75.8785 39.0539 75.6432 37.7387 75.1973L38.2952 72.0203L38.6726 71.8003C39.2588 72.2235 39.905 72.565 40.5917 72.8145C41.1198 73.0357 41.6855 73.1641 42.2613 73.1933C42.5325 73.2144 42.8036 73.1523 43.0353 73.0162C43.1094 72.9693 43.1702 72.9058 43.2126 72.8312C43.255 72.7566 43.2776 72.6733 43.2784 72.5885C43.2737 72.4554 43.2329 72.3258 43.16 72.2123C43.0871 72.0988 42.9847 72.0052 42.8626 71.9409C42.4424 71.6876 41.9992 71.4709 41.5385 71.2932C40.933 71.055 40.3434 70.7816 39.7729 70.4746C39.3046 70.198 38.9034 69.8294 38.5959 69.3931C38.2558 68.8921 38.0839 68.3038 38.1033 67.7069C38.0927 66.9687 38.3156 66.2447 38.743 65.6296C39.2017 65.0001 39.8292 64.5 40.5597 64.1816C41.3937 63.8158 42.3033 63.6341 43.2209 63.6501L43.2336 63.644ZM55.9827 69.4542C57.1512 71.2097 58.4903 73.0304 60 74.9163L59.9424 75.3134C58.6771 75.5908 57.3954 75.7949 56.1043 75.9243L55.6821 75.7044C54.4027 73.5742 53.3365 71.7657 52.4836 70.279L52.4452 71.8675L52.5988 75.7044H48.7606L48.9525 72.2341L48.7606 63.8884H52.6627L52.5284 68.8188L54.8953 65.1531L55.5349 63.8761H59.5906L55.9571 69.4665L55.9827 69.4542Z" fill="#FF9D05"/>
</svg>
