<svg width="93" height="89" viewBox="0 0 93 89" fill="none" xmlns="http://www.w3.org/2000/svg">
<path d="M32.0107 4.77206C31.8624 4.77264 31.7151 4.74133 31.575 4.67946C27.7075 6.88644 24.5845 11.7248 23.707 19.7888C23.656 20.2245 23.4724 20.6171 23.196 20.8815C22.9195 21.1458 22.5725 21.2606 22.2302 21.2009C22.0611 21.1788 21.8971 21.1143 21.7476 21.011C21.5982 20.9078 21.4662 20.7678 21.3593 20.5993C21.2524 20.4307 21.1727 20.2369 21.1249 20.0289C21.077 19.821 21.0618 19.603 21.0802 19.3875C22.097 9.98856 25.8737 4.30906 30.5521 1.69309C32.9071 0.400455 35.468 -0.165339 38.0268 0.0417151C40.578 0.224526 43.0699 1.09509 45.338 2.59595C50.1314 5.7598 53.7749 11.6708 54.0412 19.5727C54.0356 20.0047 53.9005 20.4176 53.6636 20.7265C53.4267 21.0354 53.106 21.2169 52.7675 21.2337C52.4289 21.2505 52.0981 21.1013 51.8431 20.8168C51.5881 20.5323 51.4282 20.134 51.3963 19.7039C51.1785 13.1061 48.1099 8.12883 44.0851 5.48972L43.5767 5.12703C43.4249 5.19327 43.2651 5.22463 43.1047 5.21963C41.8942 5.21963 41.5855 7.92048 41.5068 11.6091C41.5068 13.2527 41.5068 15.0816 41.5068 16.9336C41.5068 18.4152 41.5553 19.92 41.5553 20.9231C41.5553 21.3693 41.4163 21.7972 41.1688 22.1127C40.9214 22.4282 40.5858 22.6054 40.2359 22.6054C39.8859 22.6054 39.5503 22.4282 39.3029 22.1127C39.0555 21.7972 38.9165 21.3693 38.9165 20.9231C38.9165 19.2872 38.9165 18.1297 38.9165 16.9876C38.9165 15.0893 38.862 13.2373 38.9165 11.5242C38.983 8.19828 39.2917 5.35081 40.254 3.684C39.4845 3.47415 38.7035 3.34 37.9178 3.28274C36.9355 3.21287 35.9503 3.26715 34.9764 3.44479C35.854 5.18105 36.1868 7.95906 36.2232 11.2232C36.2232 12.9904 36.2232 14.9118 36.2232 16.8873C36.2232 18.0602 36.1929 19.2641 36.1929 20.9231C36.1929 21.357 36.0577 21.7731 35.8171 22.0799C35.5765 22.3867 35.2501 22.5591 34.9098 22.5591C34.5695 22.5591 34.2432 22.3867 34.0025 22.0799C33.7619 21.7731 33.6267 21.357 33.6267 20.9231C33.6267 19.8891 33.6267 18.3535 33.6691 16.8333C33.6691 14.8964 33.7236 13.0135 33.6691 11.3081C33.6025 7.51921 33.2817 4.72576 32.0531 4.77206H32.0107ZM47.42 50.3547C49.7077 60.7414 55.2093 62.5857 60.5232 64.3682C67.6105 66.745 74.3831 68.9983 74.3831 87.6882C74.3831 88.0361 74.2747 88.3698 74.0817 88.6158C73.8888 88.8618 73.6271 89 73.3542 89H1.0289C0.756015 89 0.494312 88.8618 0.301356 88.6158C0.108401 88.3698 0 88.0361 0 87.6882C0 69.0523 7.12359 66.853 14.5256 64.6075C20.1542 62.8866 25.9524 61.1118 28.1373 50.4319C26.5971 47.9391 25.4391 45.0987 24.7237 42.0592C24.665 41.7691 24.5943 41.4832 24.5119 41.2027C24.0856 41.0884 23.6852 40.8518 23.3412 40.5109C22.9973 40.1699 22.7187 39.7336 22.5268 39.2349C21.8545 37.6876 21.4306 35.9851 21.28 34.2268C21.2134 32.9603 21.3199 31.6887 21.5947 30.4687C21.827 29.3864 22.1141 28.3244 22.4541 27.2894C22.1939 27.1119 21.9397 26.9267 21.7036 26.7338C20.47 25.829 19.4675 24.4892 18.8167 22.8755L21.2376 21.5328C21.6836 22.5748 22.3506 23.4359 23.1622 24.0175C26.1097 26.3326 31.2845 27.4901 36.6287 27.5132C41.9729 27.5364 47.5229 26.4174 51.0393 24.2799C52.217 23.676 53.2426 22.6726 54.0049 21.3784L56.2866 23.0452C55.409 24.6756 54.2082 25.9802 52.8065 26.8264C52.9094 27.1274 53.0002 27.4361 53.091 27.7447C53.2322 28.2334 53.3593 28.7196 53.4723 29.2032V29.2572C53.6175 30.2064 53.7083 30.6925 53.7628 30.9857C53.7991 31.2172 53.8233 31.333 53.8354 31.4873C53.8449 31.6981 53.8449 31.9093 53.8354 32.1201C53.8354 32.4519 53.8354 32.9612 53.8354 33.8178C53.7987 34.4152 53.7279 35.0083 53.6236 35.5926C53.5157 36.2326 53.3783 36.8639 53.212 37.4832C52.9406 38.5121 52.5311 39.4729 52.0016 40.323C51.6458 40.9008 51.1568 41.3219 50.6035 41.5268L50.319 42.8772C49.7607 45.5562 48.7896 48.0666 47.4623 50.2621L47.42 50.3547ZM24.0519 62.8866C28.0906 65.8373 32.69 67.3087 37.3428 67.1385C42.0895 67.0543 46.715 65.2153 50.658 61.8449C48.4099 59.4756 46.7526 56.3219 45.8887 52.77C45.2396 53.4658 44.5187 54.0448 43.7462 54.4909C41.9151 55.8642 39.8174 56.5515 37.6939 56.474C35.7752 56.458 33.8879 55.8518 32.1923 54.7069C31.5635 54.3813 30.9563 53.9917 30.3766 53.5417C30.1527 53.3642 29.9348 53.179 29.7169 52.9861C28.4399 57.8476 26.4547 60.8494 24.1125 62.8558L24.0519 62.8866ZM24.8145 28.5936C23.949 29.697 23.6888 31.6802 23.7856 33.594C23.8413 34.7009 24.0123 35.7934 24.294 36.8427C24.4511 37.5492 24.7542 38.1888 25.1716 38.6947C25.2076 38.7327 25.2491 38.7611 25.2938 38.7783C25.3385 38.7956 25.3854 38.8012 25.4319 38.7951C25.5324 38.7571 25.6379 38.7457 25.742 38.7616C25.8461 38.7775 25.9465 38.8204 26.0371 38.8877C26.2208 39.0177 26.3607 39.2291 26.4305 39.4818C26.5818 40.0066 26.7089 40.6162 26.8421 41.1641C27.7156 45.0602 29.6159 48.4532 32.2226 50.7714C33.8742 52.1914 35.8112 52.9762 37.8028 53.0324C39.7596 53.0799 41.679 52.346 43.2923 50.9334C45.3259 49.174 47.0266 46.3034 48.001 42.2058C48.1039 41.6888 48.2128 41.2181 48.3278 40.6625L48.461 40.0683C48.5206 39.8309 48.637 39.6231 48.7938 39.4741C48.8806 39.3956 48.9791 39.3406 49.0832 39.3128C49.1874 39.2849 49.2949 39.2846 49.3991 39.3121C49.617 39.3661 49.8893 39.15 50.1677 38.7642C50.5732 38.1485 50.8851 37.442 51.0877 36.6807C51.362 35.2869 51.4419 33.8424 51.3237 32.4133C51.1366 31.0318 50.8426 29.6774 50.4461 28.3698C50.434 28.3038 50.434 28.2351 50.4461 28.1691C43.5767 31.2404 32.0773 31.8269 24.8145 28.5936Z" fill="#FF9D05"/>
<path fill-rule="evenodd" clip-rule="evenodd" d="M84.5837 52.3618C85.1082 52.7294 85.6986 53.4599 86.4276 53.9216C87.4527 54.5723 89.3523 53.6746 90.3244 55.2801C90.8908 56.2139 90.9182 56.9482 90.9593 57.673C91.0055 58.4539 91.1278 59.174 91.8492 60.2313C93.042 61.983 93.2901 63.1486 92.6749 64.3636C92.2556 65.192 91.3743 65.6518 91.1689 66.1762C90.7359 67.2924 91.2151 68.1331 90.6213 69.4346C90.208 70.338 89.5714 70.9317 88.7234 71.2347C88.008 71.4912 87.2893 71.1207 86.7168 71.3886C85.7097 71.8579 84.9678 72.9494 84.1661 73.2259C83.5594 73.4339 82.9236 73.4377 82.317 73.2259C81.5169 72.9494 80.7733 71.8598 79.7662 71.3886C79.1921 71.1207 78.475 71.4912 77.7597 71.2347C76.9117 70.9317 76.2751 70.338 75.8618 69.4346C75.2662 68.1331 75.748 67.2924 75.3124 66.1762C75.1071 65.6518 74.2257 65.192 73.8065 64.3627C73.1921 63.1486 73.4411 61.983 74.6322 60.2313C75.3535 59.173 75.4759 58.4539 75.5221 57.673C75.5649 56.9482 75.5905 56.2139 76.1579 55.2801C77.129 53.6746 79.0295 54.5723 80.0537 53.9216C80.7828 53.4599 81.3723 52.7294 81.8977 52.3618C82.797 51.73 83.6852 51.7281 84.5837 52.3618ZM76.2297 29.1589L83.1906 37.282L76.1125 37.4122L76.2297 29.1589ZM61.9024 61.7731H70.7457V60.2978H61.9024V61.7731ZM61.9024 56.1075H73.1014C73.1784 55.6515 73.3085 55.168 73.5421 54.6322H61.9024V56.1075ZM61.9024 50.4419H79.9425C80.1367 50.2671 80.331 50.1037 80.5363 49.9603C80.6296 49.8947 80.7246 49.8301 80.8213 49.7693V48.9666H61.9024V50.4419ZM61.9024 33.4479H68.1334V31.9717H61.9024V33.4479ZM61.9024 39.1126H70.7457V37.6373H61.9024V39.1126ZM61.9024 44.7772H80.7964V43.3019H61.9024V44.7772ZM86.9453 38.6319C86.9453 38.6319 86.5928 37.7408 86.1016 37.2089L75.8481 25.2393C75.7405 25.0911 75.6043 24.9715 75.4495 24.8895C75.2948 24.8075 75.1254 24.765 74.9539 24.7653H57.8619C56.7093 24.7653 55.7783 25.7988 55.7783 27.0784V66.6664C55.7783 67.9431 56.711 68.9786 57.8619 68.9786H73.0535C72.9833 68.4988 72.9756 68.0191 72.9713 67.5346C72.7737 67.3465 72.5666 67.1461 72.3612 66.9124H57.6394V26.82H74.0204V38.4381C74.0204 39.1487 74.5381 39.7358 75.1892 39.7358H85.0842V49.4463C85.3965 49.5917 85.6806 49.7674 85.9553 49.9603L86.1393 50.1037C86.4328 50.3288 86.6826 50.5635 86.9453 50.8124V38.6319ZM81.5563 61.3969L82.8047 62.7164L84.9542 60.2911C85.1664 60.0517 85.2998 59.8598 85.5625 60.1591L86.4139 61.1271C86.6929 61.4339 86.6792 61.6135 86.4156 61.8994L83.2907 65.3051C82.7354 65.9092 82.8321 65.9472 82.2682 65.326L80.1239 62.9577C80.0058 62.8171 80.0186 62.6736 80.1478 62.5331L81.1353 61.395C81.2833 61.2221 81.4023 61.2335 81.5563 61.3969ZM83.2129 56.7535C86.2231 56.7535 88.6609 59.4628 88.6609 62.8028C88.6609 66.1439 86.2214 68.8513 83.2129 68.8513C80.2035 68.8513 77.7648 66.142 77.7648 62.8028C77.7648 59.4609 80.2043 56.7535 83.2129 56.7535Z" fill="#FF9D05"/>
</svg>
