<svg width="78" height="80" viewBox="0 0 78 80" fill="none" xmlns="http://www.w3.org/2000/svg">
<path d="M18.2014 27.9525V49.2496C18.2014 49.6027 18.3384 49.9413 18.5821 50.1909C18.8259 50.4404 19.1566 50.5807 19.5014 50.5807H58.5005C58.8453 50.5807 59.176 50.4404 59.4198 50.1909C59.6635 49.9413 59.8005 49.6027 59.8005 49.2496V27.9525C59.8005 27.5995 59.6635 27.2609 59.4198 27.0113C59.176 26.7617 58.8453 26.6215 58.5005 26.6215H19.5014C19.1566 26.6215 18.8259 26.7617 18.5821 27.0113C18.3384 27.2609 18.2014 27.5995 18.2014 27.9525ZM54.6006 31.9457V34.6079H49.4007V31.9457H54.6006ZM36.401 45.2564V42.5943H41.6009V45.2564H36.401ZM33.8011 37.27V29.2836H44.2008V37.27H33.8011ZM28.6012 31.9457V34.6079H23.4013V31.9457H28.6012ZM20.8014 39.9321H31.2011V47.9186H20.8014V39.9321ZM46.8008 47.9186V39.9321H57.2005V47.9186H46.8008Z" fill="#FF9D05"/>
<path d="M50.7007 21.297H27.3013V23.953H50.7007V21.297Z" fill="#FF9D05"/>
<path d="M74.1001 55.905H72.8001V53.2428H70.2002V55.905H62.4003V53.2428H59.8004V55.905H58.5004C57.4665 55.9061 56.4751 56.3273 55.744 57.0758C55.0129 57.8246 54.6017 58.8395 54.6005 59.8982V69.1207L53.2874 59.71C53.2578 59.4969 53.178 59.2946 53.0552 59.1199C52.9323 58.9453 52.7698 58.8039 52.582 58.7077L39.5823 52.0524C39.4018 51.9599 39.2027 51.9118 39.0009 51.9118C38.7989 51.9118 38.5998 51.9599 38.4193 52.0524L25.4196 58.7077C25.2317 58.8039 25.0692 58.9453 24.9464 59.1199C24.8236 59.2946 24.7439 59.4969 24.7142 59.71L23.0164 71.8778H15.6014V67.3776L17.2847 68.8863C17.4457 69.0305 17.6391 69.132 17.8476 69.1814C18.0561 69.2308 18.2732 69.2268 18.4799 69.1696C18.6864 69.1125 18.876 69.0041 19.0319 68.8538C19.1877 68.7036 19.3049 68.5164 19.3729 68.3086L20.866 63.7593C20.9477 63.5102 20.9557 63.2418 20.8889 62.9881L15.6014 42.9463V14.6418H27.3011V17.3039C27.3011 17.657 27.438 17.9956 27.6819 18.2452C27.9256 18.4947 28.2563 18.635 28.6011 18.635H49.4006C49.7453 18.635 50.076 18.4947 50.3197 18.2452C50.5636 17.9956 50.7004 17.657 50.7006 17.3039V14.6418H62.4003V50.5807H65.0003V13.3107C65.0001 12.9577 64.8633 12.6191 64.6194 12.3695C64.3757 12.1199 64.045 11.9796 63.7003 11.9796H50.7006V9.3175H66.3003C66.6448 9.3179 66.9753 9.45827 67.219 9.7078C67.4626 9.95734 67.5997 10.2957 67.6002 10.6486V50.5807H70.2002V10.6486C70.1989 9.58987 69.7876 8.57489 69.0565 7.82628C68.3255 7.07767 67.3341 6.65657 66.3003 6.65535H49.5295L44.2008 5.56411V5.32428C44.2008 3.9122 43.6528 2.55794 42.6777 1.55945C41.7025 0.560947 40.3798 0 39.0009 0C37.6218 0 36.299 0.560947 35.3239 1.55945C34.3488 2.55794 33.801 3.9122 33.801 5.32428V5.56411L28.4722 6.65535H11.7014C10.6674 6.65655 9.67616 7.07765 8.94504 7.82626C8.21392 8.57488 7.80266 9.58987 7.80149 10.6486V13.3816L7.66725 12.8727H7.66709C7.53441 12.3655 7.30534 11.89 6.99295 11.4735C6.68059 11.057 6.29105 10.7077 5.84666 10.4456C5.40226 10.1835 4.91173 10.0136 4.40315 9.94588C3.89459 9.87813 3.37795 9.91373 2.88284 10.0507C2.38773 10.1876 1.92385 10.4232 1.51779 10.744C1.11172 11.0647 0.771423 11.4644 0.516385 11.92C0.261347 12.3756 0.0965758 12.8782 0.0315122 13.3991C-0.0335513 13.92 0.00236024 14.4489 0.137183 14.9556L7.80149 44.0065V75.871C7.80267 76.9297 8.21394 77.9447 8.94506 78.6934C9.67618 79.442 10.6675 79.8631 11.7014 79.8643H54.6005C54.8972 79.8648 55.1852 79.7609 55.4163 79.5701C55.6472 79.3791 55.8071 79.1129 55.8693 78.8157C56.5867 79.4907 57.5259 79.8649 58.5004 79.8643H74.1001C75.1339 79.8631 76.1253 79.442 76.8564 78.6934C77.5874 77.9447 77.9987 76.9297 78 75.871V59.8982C77.9987 58.8395 77.5874 57.8246 76.8564 57.0758C76.1253 56.3273 75.1339 55.9061 74.1001 55.905ZM33.801 10.6486H44.2008V13.3107H33.801V10.6486ZM10.4014 10.6486C10.4018 10.2957 10.5389 9.95734 10.7826 9.7078C11.0263 9.45827 11.3567 9.3179 11.7014 9.3175H27.3011V11.9796H14.3014C13.9566 11.9796 13.6259 12.1199 13.3821 12.3695C13.1383 12.6191 13.0014 12.9577 13.0014 13.3107V33.0914L10.4014 23.2365V10.6486ZM4.00322 19.4014L6.51318 18.707L18.2761 63.2934L17.5297 65.5681L15.7662 63.9877L4.00322 19.4014ZM22.2737 77.2021H11.7014C11.3567 77.2018 11.0263 77.0614 10.7826 76.8118C10.5389 76.5622 10.4018 76.2239 10.4014 75.871V53.8615L13.0014 63.7164V73.2089C13.0014 73.562 13.1383 73.9006 13.3821 74.1501C13.6259 74.3997 13.9566 74.54 14.3014 74.54H22.6451L22.2737 77.2021ZM44.2008 77.2021H33.801V74.54H44.2008V77.2021ZM46.8007 77.2021V73.2089C46.8005 72.8558 46.6637 72.5172 46.4198 72.2677C46.1761 72.0181 45.8454 71.8778 45.5007 71.8778H32.501C32.1562 71.8778 31.8255 72.0181 31.5818 72.2677C31.3379 72.5172 31.201 72.8558 31.201 73.2089V77.2021H27.8047L32.1378 63.8914H45.8637L50.1969 77.2021H46.8007ZM75.4001 75.871C75.3996 76.2239 75.2624 76.5622 75.0188 76.8118C74.7751 77.0614 74.4446 77.2018 74.1001 77.2021H58.5004C58.1558 77.2018 57.8253 77.0614 57.5815 76.8118C57.3379 76.5622 57.2008 76.2239 57.2005 75.871V63.8914H75.4001V75.871Z" fill="#FF9D05"/>
<path d="M41.601 31.9459H36.4011V34.6011H41.601V31.9459Z" fill="#FF9D05"/>
<path d="M28.6013 42.5942H23.4014V45.2508H28.6013V42.5942Z" fill="#FF9D05"/>
<path d="M54.6005 42.5942H49.4006V45.2508H54.6005V42.5942Z" fill="#FF9D05"/>
<path d="M62.4005 66.5535H59.8005V69.2126H62.4005V66.5535Z" fill="#FF9D05"/>
<path d="M67.6002 66.5535H65.0002V69.2126H67.6002V66.5535Z" fill="#FF9D05"/>
<path d="M72.8001 66.5535H70.2002V69.2126H72.8001V66.5535Z" fill="#FF9D05"/>
<path d="M62.4005 71.8779H59.8005V74.532H62.4005V71.8779Z" fill="#FF9D05"/>
<path d="M67.6002 71.8779H65.0002V74.532H67.6002V71.8779Z" fill="#FF9D05"/>
<path d="M72.8001 71.8779H70.2002V74.532H72.8001V71.8779Z" fill="#FF9D05"/>
</svg>
