<svg width="78" height="79" viewBox="0 0 78 79" fill="none" xmlns="http://www.w3.org/2000/svg">
<g clip-path="url(#clip0_205_177)">
<path fill-rule="evenodd" clip-rule="evenodd" d="M13.9202 3.18614e-06C15.2211 3.81575e-06 16.4928 0.380994 17.5743 1.09477C18.6559 1.80855 19.4987 2.82305 19.9962 4.00993C20.4938 5.1968 20.6236 6.50272 20.3693 7.76248C20.1151 9.02224 19.4881 10.1792 18.5678 11.0871C17.6475 11.9949 16.4752 12.6129 15.1991 12.8627C13.9231 13.1125 12.6007 12.983 11.3992 12.4905C10.1977 11.9981 9.17114 11.1648 8.44934 10.0961C7.72755 9.02748 7.34297 7.77143 7.34426 6.4869C7.34426 5.63449 7.5144 4.79043 7.84495 4.00299C8.17551 3.21554 8.65999 2.50015 9.27071 1.8977C9.88143 1.29525 10.6064 0.817561 11.4042 0.491942C12.202 0.166324 13.057 -0.000841623 13.9202 3.18614e-06ZM63.5915 55.399C64.7211 55.3977 65.8257 55.7273 66.7656 56.3461C67.7055 56.9649 68.4383 57.845 68.8715 58.8751C69.3047 59.9053 69.4187 61.0392 69.1991 62.1333C68.9795 63.2274 68.4362 64.2327 67.6379 65.0218C66.8396 65.811 65.8222 66.3486 64.7144 66.5667C63.6066 66.7848 62.4581 66.6735 61.4144 66.247C60.3706 65.8204 59.4785 65.0977 58.8508 64.1704C58.2231 63.243 57.888 62.1527 57.888 61.0373C57.888 59.543 58.4887 58.1099 59.5581 57.0527C60.6275 55.9955 62.0782 55.4007 63.5915 55.399ZM18.1913 55.399C19.321 55.3977 20.4256 55.7273 21.3654 56.3461C22.3053 56.9649 23.0382 57.845 23.4713 58.8751C23.9045 59.9053 24.0185 61.0392 23.7989 62.1333C23.5794 63.2274 23.036 64.2327 22.2377 65.0218C21.4394 65.811 20.422 66.3486 19.3142 66.5667C18.2064 66.7848 17.058 66.6735 16.0142 66.247C14.9705 65.8204 14.0783 65.0977 13.4506 64.1704C12.8229 63.243 12.4878 62.1527 12.4878 61.0373C12.4878 59.543 13.0885 58.1099 14.158 57.0527C15.2274 55.9955 16.6781 55.4007 18.1913 55.399ZM14.6039 67.5049C13.2825 67.6445 12.0256 68.1405 10.9708 68.9386C9.62494 70.0335 8.54572 71.4134 7.81304 72.976C7.00919 74.6578 6.56587 76.4854 6.51087 78.3442L6.41321 78.9871H11.3094L11.3875 78.1321C11.4043 77.2754 11.5831 76.4294 11.9149 75.6376C12.0733 75.2442 12.293 74.8776 12.566 74.5511L12.6571 78.9871H23.6735L23.7256 76.0362V76.2291L23.7581 74.5511C24.0311 74.8776 24.2507 75.2442 24.4092 75.6376C24.7409 76.4294 24.9198 77.2754 24.9366 78.1321L25.0147 78.9871H25.3923C25.3826 78.8523 25.3826 78.7169 25.3923 78.5821L25.4835 77.9392C25.556 76.8582 25.7083 75.7838 25.9393 74.7247C26.2266 73.5611 26.646 72.4331 27.1893 71.3623L27.3716 70.9958C26.7625 70.0276 25.9372 69.2096 24.9588 68.6046C23.9804 67.9995 22.8749 67.6234 21.7267 67.5049C19.7735 67.3506 16.5181 67.5049 14.6039 67.5049ZM40.8947 53.6696C42.1067 53.6696 43.2915 54.0246 44.2992 54.6896C45.3068 55.3546 46.0921 56.2999 46.5556 57.4057C47.0192 58.5115 47.1401 59.7282 46.9032 60.9019C46.6663 62.0756 46.0821 63.1536 45.2246 63.9994C44.3671 64.8452 43.2748 65.4209 42.0859 65.6536C40.897 65.8863 39.665 65.7656 38.5456 65.3067C37.4262 64.8478 36.4698 64.0714 35.7973 63.0757C35.1249 62.08 34.7667 60.9097 34.768 59.7129C34.768 58.9187 34.9265 58.1324 35.2345 57.3987C35.5424 56.6651 35.9938 55.9986 36.5628 55.4374C37.1318 54.8761 37.8073 54.4311 38.5506 54.1278C39.2939 53.8244 40.0904 53.6688 40.8947 53.6696ZM37.0403 66.637C35.6197 66.7889 34.2685 67.3226 33.1337 68.1799C31.6922 69.3633 30.5375 70.8505 29.7546 72.5324C28.8892 74.3452 28.4126 76.3152 28.3548 78.3185L28.2506 79.0193H33.5114L33.596 78.0999C33.6164 77.1816 33.8085 76.2749 34.1625 75.4255C34.3362 75.0015 34.5757 74.6068 34.8721 74.2554L34.9698 79.0193H46.774L46.8326 75.8562V76.0619L46.8716 74.2554C47.1636 74.6099 47.4026 75.004 47.5813 75.4255C47.9322 76.2758 48.1241 77.182 48.1478 78.0999L48.2324 79.0193H53.4867L53.389 78.2992C53.3342 76.2955 52.8574 74.325 51.9892 72.5131C50.2768 68.9386 48.0827 67.0484 44.6905 66.6562C42.6135 66.4891 39.1302 66.6562 37.0468 66.6177L37.0403 66.637ZM60.004 67.5049C58.6804 67.643 57.421 68.1391 56.3645 68.9386C55.6205 69.542 54.9634 70.2428 54.4112 71.0216L54.574 71.3559C55.1101 72.4437 55.5165 73.5893 55.785 74.7697C56.0168 75.8284 56.167 76.903 56.2342 77.9842L56.3059 78.4471C56.3402 78.6294 56.3577 78.8145 56.3579 79H56.7356L56.8137 78.1449C56.836 77.2882 57.0169 76.4428 57.3476 75.6505C57.5059 75.257 57.7256 74.8904 57.9987 74.564L58.0898 79H69.0802L69.1322 76.0491V76.2419L69.1713 74.564C69.4421 74.8919 69.6616 75.2582 69.8224 75.6505C70.1541 76.4422 70.333 77.2883 70.3498 78.1449L70.4279 79H75.3306L75.2329 78.3571C75.1815 76.4977 74.738 74.6694 73.9307 72.9888C72.3356 69.6586 70.2716 67.897 67.1334 67.5306C65.1802 67.3763 61.9247 67.5306 60.017 67.5306L60.004 67.5049ZM33.4332 23.8774L40.797 16.2462C41.0051 16.0296 41.2918 15.9036 41.594 15.8957C41.8962 15.8879 42.1892 15.9989 42.4085 16.2044C42.6278 16.4099 42.7554 16.6929 42.7634 16.9913C42.7713 17.2897 42.6588 17.579 42.4508 17.7956L35.5102 24.9832C35.887 25.4331 36.1259 25.9798 36.1989 26.5591C36.2719 27.1384 36.176 27.7263 35.9223 28.2536C35.6686 28.7809 35.2678 29.2257 34.7669 29.5359C34.266 29.846 33.6859 30.0085 33.0947 30.0043V38.9407H69.3145V10.0743H33.0947V23.7874L33.4332 23.8517V23.8774ZM49.4239 46.4948V41.2744H25.6332C25.4707 41.2863 25.3074 41.265 25.1535 41.2118C24.9997 41.1585 24.8587 41.0745 24.7392 40.965C24.6197 40.8555 24.5244 40.7228 24.4593 40.5753C24.3941 40.4277 24.3605 40.2685 24.3605 40.1075C24.3605 39.9466 24.3941 39.7873 24.4593 39.6398C24.5244 39.4923 24.6197 39.3596 24.7392 39.2501C24.8587 39.1406 24.9997 39.0565 25.1535 39.0033C25.3074 38.9501 25.4707 38.9287 25.6332 38.9407H30.7312V29.6057L24.8324 28.4871C24.0459 28.3446 23.3458 27.9068 22.8792 27.2655L20.3464 23.8517V23.9417L20.1446 35.3211L22.6773 49.645L23.3284 54.4025C23.3346 54.4774 23.3346 54.5526 23.3284 54.6275C22.3766 53.8818 21.2694 53.3533 20.0864 53.0799C18.9033 52.8064 17.6736 52.7949 16.4855 53.046L13.9137 38.5099L11.0685 54.7432C10.4174 58.2535 4.64226 58.2792 4.59668 54.0232L7.81304 35.4433L7.55261 24.1539L7.50703 22.2252C7.19101 22.6137 6.93637 23.0472 6.75177 23.511C6.37287 24.4153 6.16542 25.3807 6.13975 26.359L5.57982 33.5917V33.7074V33.7589V33.7974V33.9003V34.1125V34.1703V34.2025V34.2668C4.486 35.7583 1.77097 36.1955 0.75528 34.2668V34.2089V34.1639V34.1253V34.0803V34.0225V33.9646V33.9196V33.8553V34.0739V34.0032V33.9582V33.9003V33.8489V33.7524V33.6624V33.611C0.749223 31.2655 0.923345 28.9229 1.27615 26.6034C0.963627 20.5729 4.0693 14.4718 10.7104 13.9832C12.6636 13.8417 14.6559 14.0346 16.5701 14.0346C17.8582 14.018 19.1384 14.2359 20.3464 14.6775C21.0659 14.8433 21.7012 15.2585 22.1369 15.8476L27.1503 22.6816L30.7247 23.3631V10.0743H25.6332C25.4707 10.0862 25.3074 10.0649 25.1535 10.0117C24.9997 9.95843 24.8587 9.87442 24.7392 9.7649C24.6197 9.65538 24.5244 9.5227 24.4593 9.37516C24.3941 9.22762 24.3605 9.06839 24.3605 8.90743C24.3605 8.74647 24.3941 8.58724 24.4593 8.4397C24.5244 8.29216 24.6197 8.15948 24.7392 8.04996C24.8587 7.94044 24.9997 7.85644 25.1535 7.8032C25.3074 7.74996 25.4707 7.72864 25.6332 7.74056H49.2351V4.34603C49.223 4.18551 49.2446 4.02426 49.2985 3.87236C49.3524 3.72046 49.4375 3.58117 49.5484 3.46322C49.6593 3.34526 49.7937 3.25117 49.9431 3.18683C50.0925 3.12248 50.2538 3.08927 50.4168 3.08927C50.5798 3.08927 50.7411 3.12248 50.8905 3.18683C51.0399 3.25117 51.1743 3.34526 51.2852 3.46322C51.3961 3.58117 51.4812 3.72046 51.5351 3.87236C51.589 4.02426 51.6106 4.18551 51.5985 4.34603V7.71485H76.6913C76.8539 7.70292 77.0172 7.72425 77.171 7.77748C77.3249 7.83072 77.4659 7.91473 77.5854 8.02425C77.7048 8.13376 77.8001 8.26644 77.8653 8.41399C77.9305 8.56153 77.9641 8.72075 77.9641 8.88172C77.9641 9.04268 77.9305 9.20191 77.8653 9.34945C77.8001 9.49699 77.7048 9.62967 77.5854 9.73919C77.4659 9.84871 77.3249 9.93271 77.171 9.98595C77.0172 10.0392 76.8539 10.0605 76.6913 10.0486H71.6584V38.915H76.8281C76.9906 38.903 77.1539 38.9244 77.3078 38.9776C77.4616 39.0308 77.6027 39.1148 77.7221 39.2244C77.8416 39.3339 77.9369 39.4666 78.002 39.6141C78.0672 39.7616 78.1008 39.9209 78.1008 40.0818C78.1008 40.2428 78.0672 40.402 78.002 40.5496C77.9369 40.6971 77.8416 40.8298 77.7221 40.9393C77.6027 41.0488 77.4616 41.1328 77.3078 41.1861C77.1539 41.2393 76.9906 41.2606 76.8281 41.2487H51.7613V46.5912C51.8264 46.6298 51.8655 46.6748 51.9306 46.7134L59.3074 53.6567C59.3937 53.7343 59.4663 53.8256 59.5222 53.9268C58.9536 54.2587 58.425 54.6534 57.9466 55.1033L57.7708 55.2576L57.7122 55.3219L51.7613 49.7865V54.8268C51.7391 55.1213 51.605 55.3967 51.3858 55.5976C51.1667 55.7986 50.8786 55.9102 50.5796 55.9102C50.2805 55.9102 49.9925 55.7986 49.7733 55.5976C49.5541 55.3967 49.42 55.1213 49.3979 54.8268V49.5614L46.2271 52.5702C45.561 52.094 44.8314 51.711 44.0589 51.4323L49.4239 46.5012V46.4948Z" fill="#FF9D05"/>
</g>
<defs>
<clipPath id="clip0_205_177">
<rect width="78" height="79" fill="white"/>
</clipPath>
</defs>
</svg>
